<svg width="689" height="410" viewBox="0 0 689 410" fill="none" xmlns="http://www.w3.org/2000/svg">
<g clip-path="url(#clip0_708_866)">
<path d="M689 162.6C689.5 159.4 684.9 156.7 681.4 156.5C679.8 156.4 678.1 156.6 676.5 156.1C673.1 154.9 671.8 150.6 668.5 149.3C666 148.3 663.2 149.2 660.8 150.4C658.4 151.6 656.1 153.1 653.4 153.3C651.1 153.4 648.6 152.6 646.5 153.7C645 154.5 644.2 156.3 642.8 157.3C641.4 158.2 639.7 158.6 638 158.6C636.3 158.6 634.7 158.8 633.1 159.4C631.6 160.1 630.3 161.7 630.6 163.4L689 162.6Z" fill="#EBEBEB"/>
<path d="M125.5 52C125.9 48.8 121.4 46.1 117.9 45.9C116.3 45.8 114.6 46 113 45.5C109.6 44.3 108.3 40 105 38.7C102.6 37.7 99.7001 38.6 97.3001 39.8C94.9001 41 92.6001 42.5 89.9001 42.7C87.6001 42.8 85.1001 42 83.0001 43.1C81.5001 43.9 80.7001 45.7 79.3001 46.7C77.9001 47.6 76.2001 48 74.5001 48C72.8001 48 71.2001 48.2 69.6001 48.8C68.1001 49.5 66.8001 51.1 67.1001 52.7L125.5 52Z" fill="#EBEBEB"/>
<path d="M96.3 109.2C97 103.9 89.5 99.5 83.8 99.1C81.1 98.9 78.3 99.3 75.7 98.4C70.1 96.4 67.9 89.3 62.5 87.1C58.4 85.4 53.8 86.9 49.9 88.9C46 90.9 42 93.3 37.7 93.6C33.9 93.8 29.7 92.4 26.4 94.3C23.9 95.7 22.6 98.5 20.3 100.2C18 101.9 15.1 102.2 12.3 102.3C9.49998 102.5 6.59998 102.5 4.09998 103.6C1.59998 104.8 -0.500017 107.4 -1.74865e-05 110.1L96.3 109.2Z" fill="#F5F5F5"/>
<path d="M20.4999 302.6C20.4999 302.6 14.3999 305.1 21.4999 318C25.0999 324.7 28.9999 331.1 33.3999 337.3C33.3999 337.3 34.6999 340.3 32.0999 340.9C29.4999 341.4 23.7999 340.7 22.7999 343.8C21.6999 346.9 24.1999 350.1 29.0999 352.7C33.9999 355.3 44.4999 361.3 45.3999 361.8C46.2999 362.3 47.2999 363.8 45.5999 364.4C43.8999 365 31.1999 366.7 32.2999 372.7C33.4999 378.7 48.1999 383.6 49.7999 384.2C51.3999 384.7 51.7999 385.4 51.6999 386.3C51.5999 387.2 47.2999 387.3 43.6999 387.9C40.0999 388.5 35.9999 389.9 36.9999 393.2C37.9999 396.6 46.7999 403.5 67.9999 405L77.7999 405.1L82.8999 396.7C92.7999 378.1 91.5999 366.9 89.1999 364.3C86.7999 361.7 83.4999 364.4 81.0999 367.1C78.6999 369.8 76.1999 373.4 75.3999 373C74.5999 372.6 74.1999 371.9 74.5999 370.3C74.9999 368.6 78.4999 353.6 74.0999 349.4C69.6999 345.3 61.4999 355.1 59.9999 356.2C58.4999 357.3 57.8999 355.7 57.8999 354.7C57.8999 353.7 58.3999 341.6 58.6999 336.1C59.0999 330.7 57.7999 327 54.3999 326.2C50.9999 325.4 48.7999 330.6 46.8999 332.5C45.0999 334.4 43.1999 331.7 43.1999 331.7C43.1999 331.7 40.2999 324.3 32.9999 311.5C25.6999 298.7 20.1999 302.7 20.1999 302.7" fill="#EBEBEB"/>
<path d="M78.1999 407.3C72.8999 397.9 63.7 381 55.7 366.5C47.7 352 40.5 338.9 35.2 329.5C32.6 324.8 30.4 321 28.9 318.3L27.2 315.3L26.7999 314.5L26.7 314.2C26.8 314.3 26.8 314.4 26.9 314.5L27.4 315.3C27.8 316 28.4 317 29.2 318.3C30.7 320.9 32.8999 324.7 35.5999 329.4C40.8999 338.8 48.1999 351.9 56.0999 366.4C64.0999 380.9 73.2 397.8 78.5 407.2" fill="#E0E0E0"/>
<path d="M30.6 345.2C30.8 345.2 31.1 345.3 31.3 345.4C31.7 345.5 32.4 345.7 33.1 346C34.7 346.5 36.8 347.3 39.1 348.2L45 350.5L46.8 351.2C47 351.3 47.2 351.4 47.4 351.5C47.2 351.5 46.9 351.4 46.7 351.3C46.3 351.2 45.6 351 44.9 350.7C43.4 350.2 41.2 349.4 38.9 348.5L32.9 346.2L31.1 345.5C31 345.4 30.8 345.3 30.6 345.2Z" fill="#E0E0E0"/>
<path d="M48.2 350.8C48.1 350.8 49.5 346.4 51.3 340.9C53.1 335.5 54.7 331.1 54.7 331.1C54.8 331.1 53.4 335.5 51.6 341C49.8 346.4 48.3 350.8 48.2 350.8Z" fill="#E0E0E0"/>
<path d="M59.4 373.5C59.5 373.3 59.6 373.1 59.8 372.9L60.9 371.3C61.9 369.9 63.1 368 64.5 365.9C65.9 363.8 67 361.8 67.9 360.4L68.9 358.7C69 358.5 69.1 358.3 69.3 358.1C69.2 358.3 69.1 358.6 69 358.8C68.8 359.2 68.5 359.8 68.1 360.5C67.3 362 66.1 364 64.8 366.1C63.5 368.2 62.1 370.1 61.1 371.5C60.6 372.2 60.2 372.7 59.9 373.1C59.8 373.2 59.6 373.4 59.4 373.5Z" fill="#E0E0E0"/>
<path d="M42.4 372C42.6 372 42.9 372 43.1 372L44.9 372.1C46.4 372.2 48.6 372.3 50.9 372.5C53.3 372.7 55.4 372.9 56.9 373L58.7 373.2C58.9 373.2 59.1 373.3 59.4 373.3C59.2 373.3 59 373.3 58.7 373.3L56.9 373.2C55.4 373.1 53.2 372.9 50.9 372.8C48.5 372.6 46.4 372.4 44.9 372.3L43.1 372.1C42.8 372.1 42.6 372 42.4 372Z" fill="#E0E0E0"/>
<path d="M49.7 393.3C50 393.3 50.2999 393.3 50.5999 393.3L52.9 393.4C54.9 393.5 57.5999 393.7 60.5999 393.9C63.5999 394.1 66.3 394.3 68.3 394.5L70.5999 394.7C70.8999 394.7 71.2 394.8 71.5 394.8C71.2 394.8 70.8999 394.8 70.5999 394.8L68.3 394.7C66.3 394.6 63.5999 394.4 60.5999 394.2C57.5999 394 54.9 393.8 52.9 393.6L50.5999 393.4C50.2999 393.4 50 393.4 49.7 393.3Z" fill="#E0E0E0"/>
<path d="M71 394.7C71.1 394.4 71.3 394.2 71.5 393.9C71.9 393.4 72.3 392.7 72.8 391.8C73.9 390 75.5 387.6 77.2 384.8C78.9 382 80.3 379.5 81.3 377.7L82.5 375.5C82.6 375.2 82.8 375 83 374.7C82.9 375 82.8 375.3 82.6 375.5C82.3 376 82 376.8 81.5 377.7C80.5 379.6 79.1 382.1 77.5 384.9C75.8 387.7 74.3 390.1 73.1 391.8C72.5 392.7 72 393.4 71.7 393.8C71.4 394.2 71.2 394.4 71 394.7Z" fill="#E0E0E0"/>
<path d="M378.3 188.7C377 187.9 375.5 187.6 374 187.7C372.5 187.8 371 188.3 369.8 189.2C369.7 186.1 368.4 183.2 366.3 181C364.1 178.8 361.2 177.5 358.1 177.4C355 177.3 352 178.3 349.6 180.2C347.2 182.2 345.7 185 345.3 188C339.3 186.3 331.7 191.4 331.7 196.4H381.6C381.9 194.9 381.7 193.4 381.1 192C380.6 190.7 379.6 189.5 378.3 188.7Z" fill="#E0E0E0"/>
<path d="M330.3 166.9L330.8 167.8C331.4 168.8 332.3 169.6 333.3 170.1L334.2 170.5L333.3 171C332.3 171.6 331.5 172.4 331 173.5L330.5 174.4L330 173.5C329.4 172.5 328.5 171.7 327.5 171.2L326.6 170.8L327.5 170.3C328.5 169.7 329.3 168.9 329.8 167.8L330.3 166.9Z" fill="#E0E0E0"/>
<path d="M376.3 170.9L376.6 171.5C377 172.1 377.5 172.6 378.2 173L378.8 173.3L378.2 173.6C377.6 174 377.1 174.5 376.7 175.2L376.4 175.8L376.1 175.2C375.7 174.6 375.2 174.1 374.5 173.7L373.9 173.4L374.5 173.1C375.1 172.7 375.6 172.2 376 171.5L376.3 170.9Z" fill="#E0E0E0"/>
<path d="M659.8 103.4C660.4 99.2 654.5 95.8 650 95.4C647.9 95.2 645.7 95.5 643.6 94.9C639.2 93.4 637.5 87.8 633.2 86C630 84.7 626.3 85.9 623.3 87.4C620.2 88.9 617.2 90.9 613.7 91.1C610.7 91.3 607.4 90.2 604.8 91.6C602.8 92.7 601.9 94.9 600 96.3C598.2 97.6 595.9 97.9 593.7 98C591.5 98.1 589.2 98.1 587.3 99.1C585.3 100 583.7 102.1 584.1 104.2L659.8 103.4Z" fill="#F5F5F5"/>
<path d="M651 358.1C652.1 358.8 653.1 359.7 653.8 360.7C654.5 361.8 655.1 362.9 655.3 364.2C655.8 366.7 655.8 369.3 655.1 371.8C654 376.7 650.6 381.3 647.2 384.9C643.4 380.8 643.2 374.4 643.3 371.2C643.4 366.2 646.8 356.9 651 358.1Z" fill="#F5F5F5"/>
<path d="M651.2 393.6C651.1 392.2 651.3 390.7 651.9 389.4C652.5 388.1 653.5 387 654.7 386.1C655.9 385.3 657.3 384.7 658.7 384.5C660.1 384.2 661.6 384.2 663 384.5C663.7 384.6 664.3 384.8 664.9 385.1C665.5 385.4 666 385.9 666.4 386.4C666.7 387 666.8 387.6 666.7 388.2C666.6 388.8 666.4 389.4 666 389.9C665.2 390.9 664.2 391.7 663.1 392.2C659.1 394.2 655.1 395.3 651.2 393.6Z" fill="#F5F5F5"/>
<path d="M645 404.5C645.4 402.2 646.3 400.1 647.5 398.1C648.3 396.9 649.1 395.7 650.1 394.5C651.8 392.4 654 390.8 656.5 389.8C657.3 389.5 658 389.3 658.9 389.2C659.2 389.2 659.5 389.2 659.8 389.2C659.8 389.3 658.6 389.4 656.7 390.2C654.3 391.3 652.2 392.9 650.5 394.9C649.6 396 648.7 397.2 647.9 398.4C647.2 399.4 646.7 400.4 646.2 401.5C645.9 402.5 645.5 403.5 645 404.5Z" fill="#E0E0E0"/>
<path d="M649 365.4C649 366 649 366.5 649 367.1C649 368.2 648.9 369.7 648.7 371.6C648.4 375.4 648 380.7 647.4 386.5C646.8 392.3 646.1 397.6 645.5 401.3C645.2 403.2 645 404.7 644.8 405.8C644.7 406.4 644.6 406.9 644.4 407.4C644.4 406.8 644.4 406.3 644.5 405.7C644.6 404.5 644.8 403 645.1 401.2C645.6 397.4 646.2 392.2 646.8 386.4C647.4 380.6 647.9 375.4 648.2 371.5C648.4 369.7 648.5 368.2 648.6 367C648.8 366.5 648.9 365.9 649 365.4Z" fill="#E0E0E0"/>
<path d="M644.7 394.8C644.1 391.8 642.8 389 640.9 386.7C639 384.3 636.6 382.4 633.8 381.2C632.4 380.6 630.5 380.2 629.4 381.3C628.3 382.3 628.6 384.2 629.2 385.6C630.5 388.5 632.7 391 635.4 392.8C638.1 394.5 641.3 395.4 644.6 395.3" fill="#F5F5F5"/>
<path d="M634.9 385.5C635.2 385.6 635.4 385.7 635.7 385.9C636.2 386.2 636.9 386.6 637.7 387.2C639.9 388.7 641.8 390.5 643.4 392.7C644.9 394.9 645.7 397.6 645.7 400.3C645.7 401.1 645.6 401.9 645.4 402.7C645.4 403 645.3 403.3 645.2 403.5C645.1 403.5 645.3 402.3 645.3 400.3C645.3 399.1 645.1 398 644.8 396.9C644.4 395.6 643.8 394.3 643 393.1C641.5 391 639.6 389.2 637.6 387.6C636.6 386.9 635.7 386.2 634.9 385.5Z" fill="#E0E0E0"/>
<path d="M235.4 247.8H251.9C252.9 247.8 253.9 248.2 254.6 248.9C255.3 249.6 255.7 250.6 255.7 251.6V262.6H233C231.8 262.6 230.7 262.1 229.9 261.3C229.1 260.5 228.6 259.3 228.6 258.2V254.6C228.6 252.8 229.3 251.1 230.6 249.8C231.9 248.5 233.6 247.8 235.4 247.8Z" fill="#FF725E"/>
<path d="M472.8 262.6H450.1V251.6C450.1 250.6 450.5 249.6 451.2 248.9C451.9 248.2 452.9 247.8 453.9 247.8H470.4C472.2 247.8 473.9 248.5 475.2 249.8C476.5 251.1 477.2 252.8 477.2 254.6V258.2C477.2 259.4 476.7 260.5 475.9 261.3C475.1 262.1 474 262.6 472.8 262.6Z" fill="#FF725E"/>
<path d="M272.7 351.1H230.2V407.7H272.7V351.1Z" fill="#263238"/>
<path d="M478.2 351.1H435.7V407.7H478.2V351.1Z" fill="#263238"/>
<path d="M235.2 275.5L247.6 265.6L267.2 212.2C270.2 205.6 275.7 197 288.7 195.7L423.5 196.9C427.2 196.9 430.9 198.1 433.9 200.2C436.9 202.3 439.3 205.4 440.6 208.8L458.1 256.5L462.9 267.3L474.3 275.2C476.5 276.7 478.2 278.7 479.4 281C480.6 283.3 481.3 285.9 481.3 288.5L485.9 309.7C486.2 311.1 486.3 312.5 486.1 313.9L481.2 365C481.2 365 480.6 379.1 465.9 379.1H245.7C245.7 379.1 231.6 379.7 229.3 363.3C228.1 354.9 224.6 312.7 224.6 312.7C224.8 302.1 229 293.8 229.1 287.4C229.2 285.1 229.8 282.8 230.8 280.7C231.8 278.8 233.3 276.9 235.2 275.5Z" fill="#000080"/>
<g opacity="0.3">
<path opacity="0.3" d="M226.1 331C227.8 331.4 484.5 330.6 484.5 330.6L481.3 363.9C481.3 372.2 474.6 379.6 466.2 379.6H246.5C235.8 379.6 229.2 371.4 229.1 362.1L226.1 331Z" fill="black"/>
</g>
<path d="M236.1 281.5L284.9 287.4V315.8C284.9 315.8 231.8 314.4 228.6 307.3L228.4 288.1C228.4 287.2 228.6 286.3 229 285.5C229.4 284.7 229.9 283.9 230.6 283.3C231.3 282.7 232 282.2 232.9 281.9C233.7 281.6 234.6 281.4 235.6 281.5H236.1Z" fill="#E0E0E0"/>
<path d="M472.1 281.5L423.3 287.4V315.8C423.3 315.8 476.3 313.9 479.5 306.8L479.8 288C479.7 286.2 478.9 284.5 477.6 283.2C476.3 282 474.5 281.3 472.7 281.4L472.1 281.5Z" fill="#E0E0E0"/>
<path d="M256.3 257.8C256.3 257.8 270.4 210.9 277.2 204.9H432C432 204.9 445.3 234 450.2 257.8H256.3Z" fill="#455A64"/>
<path d="M295.8 358.8V362.9C295.8 365.3 296.8 367.6 298.4 369.3C300 371 302.4 371.9 304.8 371.9H403.6C406 371.9 408.3 371 410 369.3C411.7 367.6 412.6 365.3 412.6 362.9V358.8H295.8Z" fill="#263238"/>
<path d="M432.5 347.5V365.4C432.5 365.4 468.7 370.5 473.9 347.5H432.5Z" fill="#263238"/>
<path d="M280.8 347.5V365.4C280.8 365.4 244.6 370.5 239.4 347.5H280.8Z" fill="#263238"/>
<path d="M438.1 205.1C438.1 205.2 400.6 205.3 354.3 205.2C308 205.1 270.5 205 270.5 204.8C270.5 204.7 308 204.6 354.3 204.6C400.5 204.8 438.1 205 438.1 205.1Z" fill="#263238"/>
<path d="M448.8 257.5C448.9 257.4 455.1 261.9 462.7 267.5C470.3 273.2 476.4 277.8 476.3 278C476.2 278.1 470 273.6 462.4 268C454.8 262.3 448.7 257.6 448.8 257.5Z" fill="#263238"/>
<path d="M256.3 257.8C256.4 257.9 251.1 262.5 244.5 268.1C237.9 273.7 232.4 278.1 232.3 278C232.2 277.9 237.5 273.3 244.1 267.7C250.7 262.1 256.2 257.7 256.3 257.8Z" fill="#263238"/>
<path d="M258.1 235.6C258.2 235.7 255.9 242.5 252.8 250.9C249.7 259.3 247.1 266.1 247 266C246.9 266 249.2 259.1 252.3 250.7C255.3 242.3 257.9 235.5 258.1 235.6Z" fill="#263238"/>
<path d="M428.8 286.7H428.4L427.3 286.8L423.1 287C419.5 287.2 414.2 287.4 407.7 287.6C394.7 288 376.7 288.2 356.8 288.1C336.9 288 318.9 287.8 305.9 287.7L290.5 287.6L286.3 287.5H284.8C284.9 287.5 285 287.5 285.2 287.5H306L356.9 287.8C376.8 287.9 394.7 287.7 407.8 287.5C414.3 287.4 419.6 287.2 423.2 287.1L427.4 287H428.5C428.5 286.7 428.6 286.7 428.8 286.7Z" fill="#263238"/>
<path d="M331.4 204.9H372.9V209.5C372.9 210.7 372.4 211.8 371.6 212.6C370.8 213.4 369.7 213.9 368.5 213.9H335.7C334.5 213.9 333.4 213.4 332.6 212.6C331.8 211.8 331.3 210.7 331.3 209.5V204.9H331.4Z" fill="#263238"/>
<path d="M432.4 257H431.4C431.4 251.6 429.2 246.5 425.4 242.7C421.6 238.9 416.4 236.8 411 236.8C405.6 236.8 400.4 238.9 396.6 242.7C392.8 246.5 390.6 251.7 390.6 257H389.6C389.6 251.3 391.9 245.9 395.9 241.9C399.9 237.9 405.4 235.7 411.1 235.7C416.8 235.7 422.2 237.9 426.3 241.9C430.1 245.9 432.4 251.3 432.4 257Z" fill="#263238"/>
<path d="M382.7 256.1C382.7 256.1 385.7 250.6 394.4 250.3C402.5 250.1 423 250.3 423 250.3C423 250.3 433 250.7 435.9 254.8V257.4H382.7V256.1Z" fill="#263238"/>
<path d="M279.2 257.9C278.3 258.9 279.9 244.1 282 237.4C282.3 236.6 282.9 235.9 283.6 235.4C284.3 234.9 285.2 234.7 286.1 234.7H323.6C324.5 234.6 325.4 234.9 326.2 235.4C327 235.9 327.5 236.7 327.7 237.6C328.6 242.2 330.8 250.5 331.3 257.8L279.2 257.9Z" fill="#263238"/>
<path d="M318.5 218.1H292C290.2 218.1 288.8 219.5 288.8 221.3V229.5C288.8 231.3 290.2 232.7 292 232.7H318.6C320.4 232.7 321.8 231.3 321.8 229.5V221.3C321.8 219.5 320.3 218.1 318.5 218.1Z" fill="#263238"/>
<path d="M369.8 257.8C368.9 258.8 370.5 242.8 372.6 236.1C372.9 235.3 373.5 234.6 374.2 234.1C374.9 233.6 375.8 233.4 376.7 233.5H414.2C415.1 233.4 416 233.7 416.8 234.2C417.6 234.7 418.1 235.5 418.3 236.4C419.2 241 421.5 250.6 422 257.8H369.8Z" fill="#263238"/>
<path d="M409.2 218.1H382.6C380.8 218.1 379.4 219.5 379.4 221.3V229.5C379.4 231.3 380.8 232.7 382.6 232.7H409.2C411 232.7 412.4 231.3 412.4 229.5V221.3C412.5 219.5 411 218.1 409.2 218.1Z" fill="#263238"/>
<path d="M399.6 325.9H306.1C304.5 325.9 302.9 325.4 301.6 324.4C300.3 323.4 299.4 322 299 320.4L294.1 297.6C293.8 295.8 294.2 293.9 295.2 292.4C296.3 290.9 297.9 289.8 299.7 289.5C300.2 289.4 300.7 289.4 301.2 289.4H406.1C410.9 289.4 414.4 293.7 413.1 298L406.6 320.8C406.1 322.3 405.2 323.6 403.9 324.5C402.7 325.4 401.2 325.9 399.6 325.9Z" fill="#263238"/>
<path d="M460.5 264.4C460 263.6 459.6 262.8 459.3 262C458.6 260.5 457.7 258.4 456.9 256C456 253.6 455.3 251.5 454.8 249.9C454.5 249.1 454.3 248.2 454.1 247.3C454.5 248.1 454.8 248.9 455.1 249.8L457.3 255.9C458.2 258.2 458.9 260.2 459.6 261.9C460 262.6 460.3 263.5 460.5 264.4Z" fill="#263238"/>
<g opacity="0.3">
<path opacity="0.3" d="M397.2 313.6C396.8 314.8 396.1 315.9 395 316.6C394 317.3 392.7 317.7 391.4 317.7H315.5C314.2 317.7 312.9 317.3 311.8 316.5C310.7 315.7 310 314.5 309.7 313.3L305.8 298.4L309.7 317C310 318.3 310.7 319.4 311.8 320.3C312.9 321.2 314.2 321.5 315.5 321.5H391.4C392.7 321.5 393.9 321.1 395 320.4C396 319.7 396.8 318.6 397.2 317.4L402.5 298.9L397.2 313.6Z" fill="black"/>
</g>
<path d="M386.1 296.6H321.2V313.1H386.1V296.6Z" fill="#455A64"/>
<g opacity="0.3">
<path opacity="0.3" d="M379.4 205.1C380.1 206.4 313.2 257.8 313.2 257.8L349.8 257.9L412.4 205.2H379.4V205.1Z" fill="white"/>
</g>
<g opacity="0.3">
<path opacity="0.3" d="M362.5 257.8L423.3 205.1H430L371.7 257.9L362.5 257.8Z" fill="white"/>
</g>
<path d="M354.1 285.3C359.6 285.3 364.1 284.4 364.1 283.3C364.1 282.2 359.6 281.3 354.1 281.3C348.6 281.3 344.1 282.2 344.1 283.3C344.2 284.5 348.6 285.3 354.1 285.3Z" fill="#E0E0E0"/>
<path d="M450.1 257.8C450.1 257.9 406.7 258.1 353.2 258.1C299.7 258.1 256.3 258 256.3 257.9C256.3 257.8 299.7 257.6 353.2 257.6C406.7 257.6 450.1 257.6 450.1 257.8Z" fill="#263238"/>
<path d="M401.1 256C400.2 255.3 399.1 254.8 397.9 254.6C396.7 254.5 395.6 254.6 394.5 255.1C394.6 254.4 394.5 253.7 394.3 253C394.1 252.3 393.8 251.7 393.4 251.2C392.5 250.1 391.2 249.4 389.8 249.2C389.1 249.1 388.4 249.2 387.7 249.4C387 249.6 386.4 249.9 385.8 250.3C384.7 251.2 384 252.4 383.8 253.8C383.7 254.4 383.8 255 383.9 255.6C380.9 254.1 375.2 256.2 376.2 259.4H401.8C402.8 258.6 402.1 256.9 401.1 256Z" fill="#E0E0E0"/>
<path d="M325.9 200C325.9 200.2 316.5 200.3 305 200.3C293.5 200.3 284.1 200.2 284.1 200C284.1 199.8 293.5 199.7 305 199.7C316.5 199.7 325.9 199.8 325.9 200Z" fill="white"/>
<path d="M350.8 260.3C350.8 260.4 332.3 260.6 309.5 260.6C286.7 260.6 268.2 260.5 268.2 260.3C268.2 260.2 286.7 260 309.5 260C332.3 260.1 350.8 260.2 350.8 260.3Z" fill="white"/>
<path d="M339.2 282.7C339.2 282.9 329.5 283 317.5 283C305.5 283 295.8 282.9 295.8 282.7C295.8 282.5 305.5 282.4 317.5 282.4C329.5 282.5 339.2 282.6 339.2 282.7Z" fill="white"/>
<path d="M407.8 334.5C407.8 334.6 381.1 334.8 348.3 334.8C315.5 334.8 288.8 334.7 288.8 334.5C288.8 334.4 315.4 334.2 348.3 334.2C381.2 334.2 407.8 334.3 407.8 334.5Z" fill="white"/>
<path d="M380 355.9C380 356 370.3 356.2 358.4 356.2C346.5 356.2 336.8 356.1 336.8 355.9C336.8 355.8 346.4 355.6 358.4 355.6C370.3 355.7 380 355.8 380 355.9Z" fill="white"/>
<path d="M420.9 350.3L421.4 351.2C422 352.2 422.9 353 423.9 353.5L424.8 354L423.9 354.5C422.9 355.1 422.1 355.9 421.6 357L421.1 357.9L420.6 357C420 356 419.1 355.2 418.1 354.7L417.2 354.2L418.1 353.7C419.1 353.1 419.9 352.2 420.4 351.2L420.9 350.3Z" fill="#E0E0E0"/>
<path d="M288.3 322.8L288.8 323.7C289.4 324.7 290.3 325.5 291.3 326L292.2 326.4L291.3 326.9C290.3 327.5 289.5 328.3 289 329.4L288.5 330.3L288 329.4C287.4 328.4 286.5 327.6 285.5 327.1L284.6 326.7L285.5 326.2C286.5 325.6 287.3 324.8 287.8 323.7L288.3 322.8Z" fill="#E0E0E0"/>
<path d="M419 296.8L419.3 297.4C419.7 298 420.2 298.5 420.9 298.9L421.5 299.2L420.9 299.5C420.3 299.9 419.8 300.4 419.4 301.1L419.1 301.7L418.8 301.1C418.4 300.5 417.9 300 417.2 299.6L416.6 299.3L417.2 299C417.8 298.6 418.3 298.1 418.7 297.4L419 296.8Z" fill="#E0E0E0"/>
<path d="M478.7 399.2C468.3 389.1 449.9 388.8 439.1 398.5C433.6 389.1 418.6 387 410.7 394.6C406.8 384.4 395.1 377.9 384.3 379.9C373.5 381.9 365.1 392.4 365.4 403.4C361.2 400.2 356.1 398.4 350.8 398.3C345.5 398.2 340.3 399.8 336 402.8C328.4 392.4 312.5 389.2 301.4 395.8C299.5 381.9 286.1 370.4 272 370.7C257.9 371 244.9 382.9 243.6 396.9C231.3 388.7 212.6 395.5 204.6 407.9H511.2C505.9 396 488.4 390.5 478.7 399.2Z" fill="#E0E0E0"/>
<path d="M395.1 299.3C395.1 299.4 376.8 299.6 354.3 299.6C331.8 299.6 313.5 299.5 313.5 299.3C313.5 299.1 331.8 299 354.3 299C376.8 299 395.1 299.1 395.1 299.3Z" fill="white"/>
<path d="M573.9 38.3H134V88.2H574V38.3H573.9Z" fill="#DEDFE0"/>
<path d="M573.9 88.1H133.9V38.2H573.9V88.1ZM134 88.1H573.9V38.3H134V88.1Z" fill="#263238"/>
<path d="M598 2.5H527.6V387.4H598V2.5Z" fill="#E0E0E0"/>
<path d="M527.6 387.4C527.6 384.8 527.5 220.7 527.3 2.5V2.2H598.3V2.5C598.2 165.3 598.2 308.1 598.2 387.4V387.5H598L527.6 387.4L598 387.3L597.9 387.4C597.9 308.1 597.8 165.3 597.8 2.5L598.1 2.8H527.7L528 2.5C527.7 220.7 527.6 384.8 527.6 387.4Z" fill="#263238"/>
<path d="M611.5 387.4H509.3V408H611.6V387.4H611.5Z" fill="#000080"/>
<path d="M509.3 408.1V402.7C509.3 399.1 509.3 394 509.2 387.4V387.3H509.3L611.6 387.2H611.9V408.4H611.6L538.6 408.3L517.1 408.2H517.2L538.8 408.1L611.6 408L611.3 408.3V387.7L611.6 388L509.3 387.9L509.5 387.8C509.5 394.3 509.4 399.4 509.4 403V408.1H509.3Z" fill="#263238"/>
<path d="M479.7 59.5L468.2 60.9L474.3 111.8L485.8 110.4L479.7 59.5Z" fill="#E0E0E0"/>
<path d="M474.3 111.7C474.3 111.6 474.3 111.5 474.3 111.5C474.3 111.3 474.2 111 474.2 110.8C474.1 110.1 474 109.2 473.8 108C473.5 105.5 473 101.8 472.4 97.3C471.3 88.1 469.7 75.4 467.9 60.9V60.6H468.2L479.7 59.2C480.3 59.7 479.9 59.3 480 59.4V59.9L480.1 60.4L480.2 61.4L480.4 63.4C480.6 64.7 480.7 66 480.9 67.3C481.2 69.8 481.5 72.3 481.8 74.8C482.4 79.7 482.9 84.3 483.5 88.7C484.5 97.4 485.4 104.8 486 110.5V110.7H485.9L477.4 111.7L475.2 111.9L474.6 112L475.2 111.9L477.5 111.6L485.9 110.5L485.8 110.7C485.1 105.1 484.2 97.6 483.1 89C482.6 84.7 482 80 481.4 75.1C481.1 72.7 480.8 70.2 480.5 67.6C480.4 66.3 480.2 65 480 63.7L479.8 61.7L479.7 60.7L479.6 60.2V59.7C479.7 59.8 479.3 59.4 479.9 59.9L468.4 61.3L468.6 61C470.3 75.4 471.8 88.1 472.8 97.2C473.3 101.7 473.8 105.4 474 107.9C474.1 109.1 474.2 110.1 474.3 110.8C474.3 111.1 474.3 111.3 474.4 111.6C474.4 111.7 474.3 111.7 474.3 111.7Z" fill="#263238"/>
<path d="M430.5 216.5L450.4 202.5L433.1 207.3L427.8 167.7L435.7 155.1L425.5 157.9L423.1 149.5L433.5 141.1L421.7 144.4L419.7 126.8C430.7 129.2 471.9 109.2 473.2 107.1L485.1 106C486.9 107.7 532 115.6 542 110.3L545.1 127.8L532.8 127.9L549 132.3L549.7 143.4L534.7 141.8L549.5 152.8L554.9 191.2L536.2 191.3L556.7 195.6L556.8 204L537.9 202.9L556.6 212.8L567.3 288.9L544.4 288.4L569.1 295.4L571.2 312.6L548.7 306.6L570.6 321.5L573.2 349.5L453.7 362.8L450.8 338.4L468.2 317.4L450.5 330.4L444.4 312L462.1 299.2L442.4 303.4L435.3 235L454.7 217.2L433.6 226.5L430.5 216.5Z" fill="#4169E1"/>
<path opacity="0.3" d="M536.3 191.6L556.8 195.9L556.9 204.3L538 203.2L556.7 213.1L567.4 289.2L544.5 288.7L462 299.4L442.3 303.6L435.2 235.2L454.6 217.4L433.5 226.7L430.7 216.7L450.6 202.7" fill="#4169E1"/>
<path d="M525.8 174.7C528.9 177.9 532.7 180.3 537 181.8L529.8 188.7C524.5 185.9 518.9 183.5 513.2 181.7C516.9 187.6 521.3 193 526.3 197.8C523.7 198 521.5 199.6 519.3 200.8C517 202 514.4 203 511.9 202.1C510.1 201.4 508.9 199.8 507.8 198.3C504.7 194 502.2 189.3 500.1 184.4" fill="#4169E1"/>
<path d="M500 184.4C500.1 184.6 500.2 184.8 500.3 185C500.5 185.5 500.8 186.1 501.2 186.9C502 188.5 503.2 190.8 504.9 193.7C505.7 195.1 506.7 196.6 507.8 198.2C508.4 199 509 199.8 509.7 200.5C510.4 201.3 511.4 201.8 512.4 202.1C514.5 202.6 516.9 201.8 519 200.6C521.1 199.4 523.4 197.8 526.2 197.5L526 198C523 195.1 520.2 192 517.6 188.6C515.9 186.4 514.3 184.1 512.9 181.8L512.5 181.2L513.2 181.4C519 183.2 524.5 185.6 529.9 188.4H529.6L536.8 181.5L536.9 181.8C533.8 180.7 530.9 179.1 528.4 177C527.7 176.4 527.1 175.9 526.4 175.2L525.9 174.7C525.8 174.6 525.8 174.6 525.8 174.5C526 174.7 526.3 174.9 526.5 175.1C526.9 175.5 527.6 176.1 528.5 176.8C531.1 178.8 534 180.3 537 181.4L537.3 181.5L537.1 181.7L529.9 188.7L529.8 188.8L529.7 188.7C524.4 185.9 518.8 183.6 513.1 181.8L513.4 181.4C514.8 183.7 516.4 186 518.1 188.1C520.6 191.4 523.4 194.5 526.4 197.4L526.8 197.8L526.2 197.9C523.6 198.2 521.4 199.7 519.2 200.8C518.1 201.4 517 201.9 515.8 202.2C514.6 202.5 513.4 202.5 512.3 202.3C511.2 202 510.2 201.4 509.4 200.6C508.7 199.9 508 199.1 507.4 198.2C506.3 196.6 505.3 195 504.4 193.6C503.1 191.4 501.9 189.1 500.8 186.8C500.4 186 500.2 185.3 500 184.9C500 184.8 500 184.6 500 184.4Z" fill="#263238"/>
<path d="M484.9 142.9C485 143 485 143.1 485.1 143.2L485.6 144.1C486.1 145 486.7 146.2 487.5 147.7L494.4 160.7L494.2 160.6L509.2 159.7L509 160C507.1 155.1 505.1 149.7 502.9 144.2C502.7 143.7 502.5 143.2 502.3 142.6L501.9 141.6L502.7 142.2L519.1 155.8H518.7L528.5 148.9V149.2C525.2 146.5 522.3 143.6 519.6 140.3C518.6 139.1 518 138.2 517.5 137.6L517 137C516.9 136.9 516.9 136.8 516.8 136.7C516.9 136.8 516.9 136.8 517 136.9L517.6 137.6C518.1 138.2 518.8 139.1 519.8 140.2C522.5 143.4 525.5 146.3 528.8 148.9L529 149.1L528.8 149.2L519.1 156.3L519 156.4L518.9 156.3L502.5 142.7L502.9 142.4L503.5 144C505.6 149.6 507.7 154.9 509.6 159.9L509.7 160.2H509.4L494.4 161H494L493.9 160.9L487.2 147.8L485.4 144.2L484.9 143.2C485 143.1 484.9 143 484.9 142.9Z" fill="#263238"/>
<path d="M444.7 137.1C444.7 137.2 444.7 137.2 444.7 137.3C444.7 137.5 444.7 137.7 444.7 137.9C444.7 138.7 444.6 139.5 444.4 140.3C444.1 141.5 443.5 142.7 442.7 143.7C441.7 145.1 440.3 146.1 438.7 146.7V146.3L445.6 150.1H445.4C449.9 148.1 453.8 144.9 456.5 140.8L457.1 139.9L457 141C456.9 142.4 456.6 143.8 456.2 145.2C455.5 147.7 454.4 150 453 152.1L452.7 151.7C453.8 151.4 455 151.5 456.1 152.1C457.1 152.6 458 153.1 458.9 153.7C459.7 154.2 460.7 154.6 461.6 154.8C462 154.9 462.5 154.8 462.9 154.7C463.3 154.6 463.7 154.3 464 154C464.6 153.3 465.1 152.6 465.4 151.8C465.7 151 466 150.2 466.3 149.4C466.9 147.8 467.3 146.4 467.7 145.1C468.5 142.4 468.9 140.2 469.3 138.7C469.4 138 469.6 137.4 469.7 137C469.7 136.8 469.8 136.6 469.8 136.4C469.8 136.6 469.8 136.8 469.8 137C469.8 137.4 469.7 138 469.5 138.7C469.2 140.2 468.8 142.4 468.1 145.1C467.7 146.4 467.3 147.9 466.8 149.5C466.5 150.3 466.3 151.1 465.9 151.9C465.6 152.8 465.1 153.6 464.4 154.3C464 154.7 463.6 154.9 463.1 155.1C462.6 155.3 462.1 155.3 461.6 155.3C460.6 155.1 459.5 154.8 458.6 154.2C457.7 153.7 456.8 153.1 455.8 152.7C454.9 152.2 453.8 152.1 452.8 152.3L452.1 152.5L452.5 151.9C454.7 148.7 456 144.9 456.4 141.1L456.9 141.3C454.2 145.5 450.2 148.8 445.6 150.7H445.5L445.4 150.6L438.5 146.8L438.1 146.6L438.5 146.5C440.1 145.9 441.4 144.9 442.4 143.6C443.2 142.6 443.8 141.6 444.2 140.4C444.5 139.2 444.7 138.1 444.7 137.1Z" fill="#263238"/>
<path d="M517.2 309.2C517.3 309.3 517.4 309.4 517.4 309.5C517.5 309.7 517.8 310 518 310.5C518.5 311.4 519.2 312.7 520.1 314.4C521.1 316.5 522.2 318.5 523.4 320.5C525 323 527.2 325.1 529.9 326.6H529.8C531.3 326.3 532.8 325.8 534.1 325.1C535.6 324.4 537.1 323.6 538.6 322.8L538.5 323.2C537.1 321.2 535.3 319.3 533.7 317.2C531.9 315.1 530.4 312.7 529.4 310.2C529.3 309.8 529.2 309.5 529.1 309.1L528.7 307.8L529.6 308.8C533.6 313.7 538.5 317.8 544 321H543.8L552.9 317.1V317.5C549.5 314.7 546.5 311.5 544 308C543.1 306.7 542.5 305.7 542 305C541.8 304.7 541.7 304.4 541.6 304.2C541.5 304.1 541.5 304 541.5 303.9C541.6 304 541.6 304.1 541.7 304.2L542.2 305C542.6 305.7 543.3 306.7 544.2 307.9C546.7 311.4 549.7 314.5 553.1 317.2L553.4 317.4L553.1 317.5L544 321.4H543.9L543.8 321.3C538.3 318.1 533.3 314 529.3 309L529.8 308.8C529.9 309.1 530 309.5 530.1 309.8C531.2 312.3 532.6 314.6 534.3 316.7C535.9 318.8 537.6 320.7 539.1 322.8L539.3 323L539 323.1C535.9 324.6 533.1 326.5 530 326.9H529.9C527.2 325.4 525 323.2 523.4 320.6C522.2 318.6 521.1 316.6 520.1 314.4C519.3 312.7 518.6 311.3 518.1 310.4C517.9 309.9 517.7 309.6 517.5 309.4C517.2 309.4 517.2 309.3 517.2 309.2Z" fill="#263238"/>
<path d="M468.4 307.3C468.6 309.1 468.6 310.8 468.3 312.6C467.6 317.3 465.7 321.7 462.7 325.3L462.6 324.9C465.2 325.6 468.1 326.2 471.2 326.7L471 326.8C472 325.4 473 324 474 322.5C475 321 475.9 319.4 476.7 317.7L476.9 317.2L477.3 316L477.4 317.2C477.6 320.7 476.7 324.2 474.9 327.2L474.7 326.8L480.6 327.3C482.4 327.5 484.3 327.2 485.4 325.9C486.4 324.6 486.5 323 486.7 321.5C486.9 320 487.1 318.7 487.3 317.4C487.6 315 487.9 313 488.1 311.6C488.2 311 488.3 310.4 488.3 310.1C488.3 309.9 488.4 309.7 488.4 309.6C488.4 309.8 488.4 310 488.4 310.1C488.4 310.5 488.3 311 488.2 311.7C488 313.1 487.8 315.1 487.5 317.5C487.4 318.7 487.2 320.1 487 321.6C486.9 322.3 486.8 323.1 486.7 323.9C486.6 324.7 486.2 325.5 485.7 326.2C485.1 326.9 484.3 327.4 483.3 327.6C482.4 327.8 481.4 327.9 480.5 327.8L474.6 327.3H474.2L474.4 326.9C476.1 324 477 320.6 476.8 317.2L477.3 317.3L477.1 317.8C476.3 319.5 475.4 321.1 474.4 322.7C473.4 324.2 472.4 325.6 471.4 327L471.3 327.1H471.1C468 326.5 465.1 325.9 462.4 325.2L462.1 325.1L462.3 324.8C465.3 321.2 467.3 316.9 468 312.3C468.2 311 468.3 309.7 468.4 308.4C468.4 308.3 468.4 307.8 468.4 307.3Z" fill="#263238"/>
<path d="M491.5 328.6C491.6 330.1 491.6 331.5 491.4 333C491 337.1 489.7 341 487.8 344.6L487.7 344.3L493.4 345.4L496.5 346C497 346.1 497.5 346.2 498.1 346.2C498.3 346.2 498.6 346.1 498.8 345.9C499 345.8 499.2 345.6 499.3 345.4C499.8 344.4 500.1 343.3 500.3 342.2C500.6 341 500.8 339.9 501 338.7C501.5 336.3 501.9 333.8 502.2 331.2L502.5 328.7L502.7 331.2C503.1 336.6 503.6 342.4 504.1 348.4C504.1 348.9 504.3 349.3 504.6 349.7C504.8 349.9 504.9 350 505.2 350C505.4 350.1 505.6 350.1 505.8 350.1C506.8 350 507.8 349.8 508.8 349.7L514.7 348.9L514.5 349.2C513.8 345.1 513 341.1 512.3 337.3L512.2 336.5L512.8 337L520.8 345H520.7C522 345.4 523.4 345.5 524.7 345.1C525.9 344.8 527.1 344.4 528.3 343.9L528.2 344.2C525.5 340.9 523 337.4 521 333.7C520.3 332.4 519.8 331.3 519.4 330.6L519 329.8C519 329.7 518.9 329.6 518.9 329.5C519 329.6 519 329.7 519.1 329.8L519.5 330.6C519.9 331.3 520.4 332.3 521.2 333.6C523.3 337.3 525.8 340.7 528.5 344L528.7 344.2L528.5 344.3C527.3 344.8 526.1 345.2 524.9 345.6C523.5 346 522 346 520.7 345.5L512.6 337.6L513 337.4C513.7 341.2 514.4 345.1 515.2 349.2V349.5H514.9L509 350.3C508 350.4 507 350.6 505.9 350.7C505.6 350.7 505.3 350.7 505 350.6C504.7 350.5 504.5 350.3 504.3 350.1C503.9 349.6 503.7 349.1 503.7 348.5C503.2 342.5 502.7 336.7 502.3 331.3H502.8C502.5 333.9 502.1 336.4 501.6 338.8C501.4 340 501.1 341.2 500.8 342.3C500.6 343.5 500.3 344.6 499.8 345.7C499.6 346 499.4 346.2 499.2 346.4C498.9 346.6 498.6 346.7 498.3 346.7C497.7 346.7 497.2 346.7 496.6 346.5L493.5 345.9L487.8 344.8H487.6L487.7 344.6C489.7 341.1 491 337.2 491.5 333.2C491.7 331.8 491.7 330.7 491.7 329.9V329C491.5 328.9 491.5 328.8 491.5 328.6Z" fill="#263238"/>
<path d="M488.2 247.9C488.2 247.9 488.2 247.9 488.3 248.1L488.6 248.6L489.6 250.6L493.2 258L495.7 263.3C496.2 264.3 496.6 265.3 497.1 266.2C497.6 267.2 498.2 268.2 499.1 269C500 269.8 501.2 270.3 502.4 270.3C503.7 270.4 505 270.2 506.2 269.9C508.7 269.2 511.2 267.7 514.2 267.4L514 267.8C511.1 262.8 508.6 257.5 506.3 252.2C505.4 250 504.6 247.9 503.8 245.7L504.3 245.5C505.3 247.6 506.6 249.5 508.1 251.3C509.5 253 511.2 254.4 513.2 255.4C515.1 256.3 517.2 256.6 519.2 256.4C521.1 256.2 522.9 255.3 524.2 254V254.3C519.7 250.4 516 245.6 513.3 240.2C512.3 238.2 511.4 236.1 510.8 234C510.9 234.1 510.9 234.3 511 234.4L511.5 235.6C511.9 236.6 512.6 238.2 513.6 240.1C516.3 245.4 520.1 250.1 524.6 253.9L524.8 254L524.7 254.2C523.3 255.7 521.5 256.6 519.4 256.8C517.3 257.1 515.1 256.7 513.1 255.8C511.1 254.8 509.3 253.4 507.8 251.6C506.3 249.8 505 247.8 503.9 245.7L504.4 245.5C505.2 247.6 506 249.8 506.9 252C509.1 257.3 511.7 262.5 514.5 267.6L514.7 267.9H514.3C511.4 268.2 509 269.7 506.3 270.4C505 270.8 503.7 270.9 502.4 270.8C501.1 270.7 499.9 270.2 498.9 269.3C498 268.5 497.3 267.5 496.8 266.4C496.3 265.4 495.8 264.4 495.4 263.5L492.9 258.2L489.4 250.7C489 249.8 488.7 249.2 488.5 248.7C488.4 248.5 488.3 248.3 488.3 248.2L488.2 247.9Z" fill="#263238"/>
<path d="M453.7 231.8C453.7 231.9 453.7 232 453.7 232.2C453.7 232.5 453.6 232.9 453.6 233.2C453.4 234.5 453 235.8 452.5 237C451.7 238.9 450.5 240.7 449 242.2C447.1 244.2 444.7 245.6 442.1 246.5L442.2 246.1L451.2 255.9H450.8C453.4 252.8 455.6 249.3 457.2 245.5L457.5 244.7L457.7 245.5C457.7 245.7 457.8 246 457.8 246.2C458.2 248.5 458 250.8 457.4 253C456.8 255.2 455.6 257.3 454.1 259L454 258.6C455.2 258.9 456.2 259.5 457.1 260.3C457.9 261.1 458.7 261.7 459.6 262.3C460.4 262.9 461.5 263.1 462.5 262.9C463 262.8 463.4 262.6 463.8 262.3C464.2 262 464.5 261.6 464.7 261.2C465.2 260.4 465.5 259.5 465.8 258.6C466.1 257.7 466.4 256.9 466.6 256.1C467.1 254.5 467.5 252.9 467.8 251.5C468.3 249.3 468.6 247.1 468.8 244.9C468.9 244.2 468.9 243.6 468.9 243.1C468.9 242.9 468.9 242.7 469 242.5C469 242.7 469 242.9 469 243.1C469 243.5 469 244.1 468.9 244.9C468.8 247.1 468.5 249.4 468 251.6C467.7 253 467.4 254.5 466.9 256.2C466.7 257 466.4 257.9 466.1 258.7C465.8 259.6 465.4 260.5 465 261.3C464.8 261.8 464.4 262.2 464 262.5C463.6 262.8 463.1 263.1 462.6 263.2C461.5 263.4 460.3 263.1 459.4 262.5C458.5 261.9 457.6 261.2 456.7 260.4C455.9 259.6 454.9 259.1 453.8 258.8L453.4 258.7L453.7 258.4C455.2 256.7 456.3 254.7 456.9 252.6C457.5 250.4 457.7 248.2 457.3 246L457.2 245.3H457.7C456.1 249.1 453.9 252.6 451.2 255.8L451 256L450.8 255.8L441.9 245.9L441.7 245.6L442 245.5C444.6 244.7 446.9 243.3 448.8 241.4C450.3 239.9 451.4 238.2 452.3 236.4C453 235.2 453.5 233.5 453.7 231.8Z" fill="#263238"/>
<path d="M523.5 216C523.9 216.5 524.2 217 524.5 217.5C525.1 218.5 526.1 219.9 527.4 221.5C530.8 225.8 534.9 229.6 539.4 232.7L539 232.8L540.6 230.6L543.7 226.4C544.2 225.8 544.7 225.1 545.1 224.4C545.3 224.1 545.3 223.7 545.3 223.4C545.2 223 545.1 222.7 544.8 222.5C544.2 222 543.6 221.6 543 221.3C542.3 220.9 541.7 220.6 541.1 220.2C540 219.5 539 218.6 538.1 217.7C536.8 216.4 535.6 214.9 534.7 213.3C534.4 212.7 534.1 212.3 534 212C533.9 211.8 533.8 211.7 533.8 211.5C533.8 211.5 534.2 212.1 534.9 213.2C535.9 214.8 537.1 216.2 538.4 217.5C539.3 218.4 540.3 219.2 541.3 219.9C541.9 220.3 542.5 220.6 543.1 221C543.8 221.3 544.5 221.7 545.1 222.3C545.4 222.6 545.6 223 545.7 223.4C545.8 223.8 545.7 224.3 545.5 224.7C545.1 225.5 544.6 226.2 544.1 226.8L541 231L539.4 233.1L539.2 233.3L539 233.2C534.4 230.1 530.3 226.2 527 221.8C526 220.5 525.1 219.1 524.2 217.7C523.9 217.2 523.7 216.8 523.6 216.5C523.6 216.3 523.6 216.2 523.5 216Z" fill="#263238"/>
<path d="M415.6 179.9C415.5 179.8 417 178.9 418.4 177.5C419.9 176.1 420.8 174.7 420.9 174.8C420.5 176 419.7 177.1 418.7 177.9C417.9 178.8 416.8 179.5 415.6 179.9Z" fill="#263238"/>
<path d="M409.2 173.6C410.4 172.9 411.7 172.5 413.1 172.1C414.4 171.6 415.7 171.3 417.1 171.1C415.9 171.8 414.6 172.3 413.2 172.6C412 173.1 410.6 173.4 409.2 173.6Z" fill="#263238"/>
<path d="M570.2 165.8C566.8 165.2 563.8 163.3 561.7 160.6C561.8 160.5 563.4 162.1 565.7 163.5C568.1 164.9 570.2 165.7 570.2 165.8Z" fill="#263238"/>
<path d="M569.8 171.9C568.6 172.1 567.4 172.2 566.2 172C565 172 563.8 171.9 562.7 171.6C565 171.4 567.4 171.4 569.8 171.9Z" fill="#263238"/>
<path d="M424.7 255.3C427.4 253.7 429.6 251.4 431 248.6C430.6 250.2 429.8 251.6 428.7 252.8C427.6 254 426.2 254.8 424.7 255.3Z" fill="#263238"/>
<path d="M418.4 249.8C420.1 249.1 421.8 248.4 423.4 247.5C424.9 246.5 426.4 245.4 427.8 244.2C426.7 245.7 425.3 247 423.7 247.9C422.1 248.9 420.3 249.5 418.4 249.8Z" fill="#263238"/>
<path d="M577.5 275.9C575.7 274.4 574.2 272.6 573 270.6C573.9 271.3 574.7 272.2 575.4 273.1C576.3 273.9 577 274.9 577.5 275.9Z" fill="#263238"/>
<path d="M437.2 328.5C437.1 328.4 438.2 327.7 439.2 326.6C440.2 325.5 440.7 324.3 440.8 324.4C440.7 325.4 440.3 326.3 439.6 327C439 327.8 438.2 328.3 437.2 328.5Z" fill="#263238"/>
<path d="M434 323.4C433.9 323.3 435.4 322.6 437 321.4C438.6 320.2 439.6 318.9 439.7 319C439.1 320.1 438.3 321.1 437.3 321.8C436.4 322.6 435.3 323.1 434 323.4Z" fill="#263238"/>
<path d="M427.4 317.5C427.4 317.3 430.2 317 433.4 315.8C436.6 314.6 439 313.1 439.1 313.2C435.8 315.8 431.6 317.3 427.4 317.5Z" fill="#263238"/>
<path d="M582 322C580.8 322 579.7 321.7 578.7 321C577.7 320.3 577 319.4 576.7 318.2C577.9 320 579.8 321.4 582 322Z" fill="#263238"/>
<path d="M584.3 325.8C582.2 326.1 580.1 326.1 578 325.8C579 325.5 580.1 325.4 581.2 325.5C582.2 325.4 583.2 325.5 584.3 325.8Z" fill="#263238"/>
<path d="M188 2.5H117.6V387.4H188V2.5Z" fill="#E0E0E0"/>
<path d="M188 387.4C188 384.8 187.9 220.7 187.7 2.5L188 2.8H117.6L117.9 2.5C117.8 165.3 117.8 308.1 117.8 387.4L117.7 387.3L188 387.4L117.6 387.5H117.5V387.4C117.5 308.1 117.4 165.3 117.4 2.5V2.2H188.4V2.5C188.1 220.7 188 384.8 188 387.4Z" fill="#263238"/>
<path d="M206.3 387.4H104V408H206.3V387.4Z" fill="#000080"/>
<path d="M206.3 408.1V402.6C206.3 399.1 206.3 393.9 206.2 387.4L206.3 387.5L104 387.6L104.3 387.3V407.9L104 407.6L176.8 407.7L198.4 407.8H198.5L177 407.9L104 408H103.6V387H103.9L206.2 387.1H206.3V387.3C206.3 393.8 206.2 399 206.2 402.6V407.7C206.3 407.9 206.3 408 206.3 408.1Z" fill="#263238"/>
<path d="M210.6 56L206.8 107.1L218.4 108L222.2 56.9L210.6 56Z" fill="#E0E0E0"/>
<path d="M218.3 108C218.3 107.9 218.3 107.8 218.3 107.7V106.9C218.3 106.2 218.4 105.2 218.5 104C218.7 101.4 218.9 97.8 219.2 93.3C219.8 84.1 220.8 71.4 221.8 56.9L222 57.2L210.4 56.4C211 55.9 210.6 56.3 210.7 56.2V57.2L210.6 58.2L210.5 60.2L210.2 64.1C210 66.7 209.8 69.2 209.6 71.6C209.2 76.5 208.9 81.2 208.5 85.5C207.8 94.2 207.2 101.7 206.8 107.3L206.7 107.1L215.2 107.8L217.5 108L218.1 108.1H217.6L215.4 108L206.8 107.5H206.7V107.3C207.1 101.7 207.6 94.2 208.2 85.5C208.5 81.1 208.9 76.5 209.2 71.6C209.4 69.1 209.6 66.6 209.8 64.1C209.9 62.8 210 61.5 210.1 60.2L210.2 58.2L210.3 57.2V56.2C210.4 56.1 210 56.4 210.6 55.9L222.2 56.8H222.5V57.1C221.4 71.7 220.4 84.5 219.7 93.6C219.3 98.1 219 101.8 218.8 104.3C218.7 105.5 218.6 106.5 218.6 107.2C218.6 107.4 218.6 107.7 218.5 107.9C218.3 108 218.3 108 218.3 108Z" fill="#263238"/>
<path d="M266.9 210.7L246.4 197.6L263.9 201.6L267.3 161.8L258.8 149.6L269.1 152L271.1 143.5L260.3 135.7L272.3 138.5L273.5 120.7C262.6 123.6 220.5 105.5 219.2 103.4L207.3 102.8C205.6 104.6 160.8 114.5 150.7 109.6L148.4 127.2L160.7 126.7L144.8 131.8L144.6 142.9L159.5 140.7L145.3 152.3L141.6 190.9L160.3 190.2L140 195.4L140.3 203.8L159.1 201.8L140.9 212.6L133.7 289.1L156.6 287.5L132.2 295.6L130.9 312.8L153 305.8L131.9 321.7L130.6 349.8L250.6 357.6L252.4 333.1L234 313L252.4 325.1L257.7 306.5L239.4 294.5L259.3 297.8L263.2 229.2L243 212.4L264.5 220.8L266.9 210.7Z" fill="#4169E1"/>
<g opacity="0.3">
<path opacity="0.3" d="M160 190.5L139.7 195.7L140 204.1L158.8 202.1L140.5 212.9L133.3 289.4L156.2 287.8L239.2 294.8L259.1 298.1L263.1 229.5L242.9 212.6L264.4 221L266.8 210.9L246.3 197.8" fill="black"/>
</g>
<path d="M236.8 177.1C236.8 177.2 236.9 177.3 236.9 177.4C237 177.6 237.1 177.9 237.2 178.2C237.6 179.3 238 180.4 238.4 181.4C240.2 185.2 242.9 188.5 246.4 190.9L246.7 191.1L246.4 191.2L240.4 193.9C239.3 194.4 238.2 194.9 237.1 195.4C236.5 195.7 235.9 195.8 235.2 195.9C234.5 195.9 233.8 195.7 233.2 195.3C232.6 194.9 232.1 194.5 231.7 194L230.3 192.5C229.4 191.5 228.5 190.5 227.6 189.4C225.8 187.1 224.2 184.8 222.7 182.3L223.2 182.2C223.2 183.1 223.3 184 223.4 184.8C224.1 189.9 226 194.8 228.9 199.1L229.1 199.4L228.8 199.5L216.2 203.6H216L215.9 203.5C213.2 198.9 211.3 193.9 210.3 188.7C210 187.3 209.8 185.8 209.7 184.3C209.7 183.8 209.7 183.4 209.6 183.1C209.6 183 209.6 182.8 209.6 182.7C209.6 182.8 209.7 183 209.7 183.1L209.8 184.2C209.9 185.2 210.1 186.7 210.5 188.5C211.6 193.7 213.5 198.6 216.3 203.2L216 203.1L228.6 199L228.5 199.4C225.5 195.1 223.6 190.1 222.9 184.9C222.8 184 222.7 183.1 222.7 182.2L222.6 181.1L223.2 182C224.7 184.5 226.3 186.8 228.1 189.1C229 190.2 229.9 191.2 230.8 192.2C231.3 192.7 231.7 193.2 232.2 193.6C232.6 194.1 233.1 194.5 233.6 194.9C234.1 195.2 234.7 195.4 235.3 195.4C235.9 195.4 236.5 195.3 237 195C238.1 194.5 239.2 194 240.3 193.6L246.4 191V191.3C242.9 188.8 240.2 185.5 238.4 181.6C237.7 180.1 237.1 178.7 236.8 177.1Z" fill="#2B2E83"/>
<path d="M196 181.8C195.9 182 195.9 182.3 195.8 182.5C195.6 182.9 195.4 183.6 195.1 184.5C194.1 186.9 193.1 189.2 191.8 191.5C191 193 190.1 194.5 189.1 196.2C188.6 197.1 188 197.9 187.3 198.7C186.6 199.6 185.6 200.2 184.5 200.5C183.4 200.8 182.1 200.9 181 200.6C179.8 200.3 178.6 199.9 177.5 199.4C175.3 198.3 173 196.9 170.4 196.7H169.8L170.2 196.3C173.1 193.3 175.7 190 178.1 186.6C179.7 184.3 181.2 182 182.5 179.6L182.8 180C177.1 182 171.7 184.6 166.5 187.6L166.4 187.7L166.3 187.6L158.8 181L158.6 180.8L158.9 180.7C161.9 179.5 164.7 177.8 167.2 175.7C168.1 175 168.7 174.3 169.2 173.9C169.4 173.7 169.6 173.5 169.9 173.3C169.9 173.3 169.9 173.4 169.8 173.5L169.4 174C168.8 174.7 168.2 175.3 167.5 175.9C165.1 178.1 162.2 179.8 159.2 181.1L159.3 180.8L166.8 187.4H166.5C171.7 184.3 177.1 181.7 182.8 179.6L183.5 179.4L183.2 180C181.9 182.3 180.4 184.7 178.8 187C176.4 190.4 173.7 193.7 170.9 196.7L170.7 196.3C173.5 196.5 175.8 198 178 199C180.2 200 182.6 200.8 184.7 200.2C185.7 199.9 186.6 199.3 187.3 198.5C188 197.8 188.6 197 189.1 196.1C190.2 194.4 191.1 192.9 191.9 191.5C193.5 188.6 194.6 186.2 195.3 184.6L196.1 182.7C195.8 182.2 195.9 182 196 181.8Z" fill="#2B2E83"/>
<path d="M209.2 139.6C209.2 139.7 209.1 139.8 209.1 139.9C209 140.2 208.9 140.5 208.7 140.9L207 144.6L200.9 158L200.8 158.1H200.7L185.7 158H185.4L185.5 157.7L190.8 141.6C191 141.1 191.2 140.5 191.3 140L191.7 140.3L176 154.6L175.9 154.7L175.7 154.6L165.7 148L165.5 147.9L165.7 147.7C168.8 144.9 171.7 141.9 174.3 138.6C175.2 137.4 175.9 136.5 176.3 135.9L176.8 135.2C176.9 135.1 176.9 135 177 135C177 135.1 176.9 135.2 176.9 135.3L176.4 136.1C176 136.8 175.3 137.7 174.4 138.9C171.9 142.3 169 145.4 165.9 148.2V147.9L176 154.5H175.7L191.4 140.2L192.1 139.5L191.8 140.5L191.3 142.1C189.4 147.8 187.6 153.2 185.9 158.2L185.7 157.9L200.7 158.1L200.5 158.2L206.7 144.9L208.5 141.2L209 140.2C209.1 139.8 209.1 139.7 209.2 139.6Z" fill="#263238"/>
<path d="M249.1 131.9C249.1 133 249.3 134 249.7 135C250.1 136.2 250.7 137.3 251.6 138.2C252.7 139.4 254.1 140.4 255.6 140.9L256 141L255.6 141.2L248.9 145.3L248.8 145.4H248.7C244 143.7 239.9 140.6 237 136.5L237.5 136.3C238.1 140.1 239.6 143.8 241.9 146.9L242.3 147.5L241.6 147.3C240.6 147.1 239.5 147.3 238.7 147.8C237.8 148.3 236.9 148.8 236 149.4C235.1 150 234.2 150.4 233.1 150.6C232.6 150.7 232.1 150.6 231.6 150.5C231.1 150.4 230.6 150.1 230.3 149.7C229.6 149 229.1 148.2 228.7 147.4C228.3 146.6 228 145.8 227.7 145C227.1 143.5 226.6 142 226.2 140.7C225.3 138 224.8 135.9 224.5 134.4C224.3 133.7 224.2 133.1 224.2 132.7C224.2 132.5 224.1 132.3 224.1 132.1C224.2 132.3 224.2 132.5 224.3 132.7C224.4 133.1 224.6 133.7 224.7 134.4C225.1 135.9 225.7 138 226.6 140.7C227 142 227.6 143.5 228.2 145C228.5 145.8 228.8 146.6 229.2 147.4C229.5 148.2 230 149 230.7 149.6C231 149.9 231.4 150.1 231.9 150.2C232.3 150.3 232.8 150.4 233.2 150.3C234.2 150.1 235.1 149.7 235.9 149.1C236.8 148.6 237.6 147.9 238.6 147.4C239.6 146.8 240.8 146.6 242 146.9L241.7 147.3C240.2 145.2 239 142.9 238.2 140.5C237.7 139.2 237.4 137.8 237.2 136.4L237 135.3L237.6 136.2C240.5 140.2 244.5 143.2 249.1 145H248.9L255.6 140.9V141.3C254 140.7 252.5 139.8 251.5 138.4C250.7 137.4 250.1 136.3 249.7 135.1C249.5 134.3 249.3 133.5 249.3 132.7V132.1C249 132.1 249 132 249.1 131.9Z" fill="#4169E1"/>
<path d="M184.5 307.1C184.5 307.2 184.4 307.4 184.3 307.5C184.1 307.8 183.9 308.2 183.8 308.5C183.3 309.5 182.8 310.8 182 312.6C181.2 314.8 180.2 316.9 179.1 318.9C177.6 321.6 175.5 323.9 172.8 325.5H172.7C169.6 325.2 166.7 323.4 163.5 322.1L163.2 322L163.4 321.7C164.8 319.6 166.3 317.6 167.9 315.4C169.6 313.2 170.9 310.8 171.8 308.3C171.9 307.9 172 307.6 172.1 307.2L172.6 307.4C168.8 312.5 164 316.9 158.6 320.3L158.5 320.4H158.4L149.1 316.9L148.8 316.8L149.1 316.6C152.3 313.7 155.2 310.4 157.6 306.8C158.4 305.5 159 304.5 159.5 303.8C159.7 303.5 159.8 303.2 160 303C160 302.9 160.1 302.8 160.2 302.7C160.2 302.8 160.1 302.9 160.1 303L159.7 303.8C159.3 304.5 158.7 305.6 157.9 306.9C155.6 310.6 152.8 313.9 149.5 316.8L149.4 316.4L158.7 319.9H158.5C163.8 316.5 168.5 312.1 172.3 307.1L173.1 306L172.8 307.3C172.7 307.7 172.6 308.1 172.5 308.4C171.5 311 170.2 313.4 168.5 315.6C167 317.8 165.3 319.8 164 321.8L163.9 321.4C165.5 322.1 167 322.9 168.5 323.5C169.9 324.2 171.4 324.6 172.9 324.8H172.8C175.4 323.2 177.5 321 179 318.4C180.1 316.4 181.2 314.3 182 312.2C182.8 310.4 183.4 309.1 183.9 308.2C184.1 307.9 184.3 307.5 184.5 307.2C184.4 307.3 184.5 307.2 184.5 307.1Z" fill="#263238"/>
<path d="M233.2 303.1C233.3 303.6 233.3 304 233.3 304.5C233.4 305.8 233.6 307.1 233.8 308.4C234.8 313 236.9 317.2 240.1 320.6L240.3 320.9L240 321C237.4 321.9 234.5 322.6 231.4 323.3H231.3L231.2 323.2C230.1 321.9 229.1 320.5 228 319C226.9 317.5 225.9 315.9 225.1 314.3L224.9 313.8L225.4 313.7C225.4 317.1 226.3 320.4 228.2 323.2L228.4 323.5L228 323.6L222.2 324.4C221.3 324.5 220.3 324.5 219.4 324.4C218.5 324.2 217.6 323.8 217 323.1C216.5 322.4 216.1 321.7 215.9 320.8C215.7 320 215.6 319.2 215.4 318.5C215.2 317 214.9 315.7 214.7 314.5C214.3 312.1 214 310.1 213.8 308.7C213.7 308.1 213.6 307.6 213.6 307.2C213.6 307 213.6 306.8 213.6 306.7C213.7 306.9 213.7 307 213.7 307.2L214 308.7C214.3 310.1 214.6 312 215.1 314.4L215.8 318.4C216.1 319.8 216.3 321.5 217.3 322.7C218.4 323.9 220.3 324.2 222.1 323.9L228 323.1L227.8 323.5C225.9 320.6 224.8 317.2 224.8 313.7V312.5L225.3 313.6L225.5 314.1C226.3 315.7 227.3 317.3 228.4 318.8C229.4 320.3 230.5 321.7 231.6 323L231.3 322.9C234.4 322.2 237.3 321.5 239.8 320.7L239.7 321.1C236.5 317.6 234.4 313.3 233.6 308.7C233.2 306.7 233 304.9 233.2 303.1Z" fill="#263238"/>
<path d="M211.1 325.4C211.1 325.5 211.1 325.6 211.1 325.7C211.1 326 211.1 326.3 211.2 326.5C211.3 327.6 211.4 328.7 211.6 329.8C212.3 333.8 213.8 337.6 215.9 341.1L216 341.3L215.8 341.4L210.2 342.8L207.1 343.6C206.6 343.8 206 343.9 205.4 343.8C205.1 343.8 204.8 343.7 204.5 343.5C204.2 343.3 204 343.1 203.8 342.8C203.2 341.8 202.8 340.6 202.6 339.5C202.3 338.4 202 337.2 201.7 336C201.1 333.6 200.6 331.1 200.1 328.5H200.6C200.4 333.9 200.2 339.7 200 345.7C200 346.3 199.8 346.8 199.5 347.3C199.3 347.5 199.1 347.7 198.8 347.8C198.5 347.9 198.2 348 197.9 347.9C196.8 347.9 195.8 347.7 194.8 347.7L188.8 347.2H188.5V346.9L190.2 334.9L190.6 335.1L182.9 343.4C181.6 343.9 180.1 344 178.7 343.7C177.4 343.4 176.2 343.1 175 342.6L174.8 342.5L175 342.3C177.6 338.9 179.9 335.3 181.9 331.6C182.6 330.3 183.1 329.2 183.4 328.5L183.8 327.7C183.8 327.6 183.9 327.5 183.9 327.4C183.9 327.5 183.8 327.6 183.8 327.7L183.5 328.5C183.2 329.2 182.7 330.3 182.1 331.6C180.2 335.4 177.9 339.1 175.4 342.4L175.3 342.1C176.5 342.6 177.7 342.9 178.9 343.2C180.2 343.5 181.6 343.4 182.8 342.9H182.7L190.3 334.6L190.8 334L190.7 334.8C190.2 338.6 189.7 342.6 189.1 346.7L188.9 346.4L194.9 346.9C195.9 347 197 347.1 197.9 347.1C198.1 347.1 198.3 347.1 198.5 347C198.7 346.9 198.9 346.8 199 346.6C199.3 346.2 199.4 345.8 199.4 345.3C199.6 339.3 199.8 333.5 200 328.1L200.1 325.6L200.5 328.1C200.9 330.7 201.5 333.2 202 335.5C202.3 336.7 202.6 337.9 202.9 339C203.1 340.1 203.5 341.2 204 342.2C204.1 342.4 204.3 342.6 204.5 342.7C204.7 342.8 204.9 342.9 205.2 342.9C205.7 342.9 206.3 342.8 206.8 342.7L209.9 342L215.5 340.7L215.4 341C213.3 337.5 211.9 333.7 211.3 329.7C211.1 328.3 211 326.9 211.1 325.4Z" fill="#263238"/>
<path d="M210.7 244.6C210.7 244.7 210.7 244.7 210.7 244.8C210.7 244.9 210.6 245.1 210.5 245.3C210.3 245.8 210 246.5 209.7 247.4L206.6 255.1C205.9 256.7 205.2 258.5 204.4 260.5C204 261.5 203.6 262.5 203.1 263.5C202.6 264.6 202 265.6 201.1 266.5C200.2 267.4 199 268 197.7 268.1C196.4 268.3 195 268.2 193.7 267.9C191 267.3 188.5 265.9 185.6 265.8H185.2L185.4 265.5C188 260.3 190.3 255 192.3 249.6C193.1 247.4 193.8 245.2 194.5 243L195 243.2C194 245.3 192.8 247.4 191.4 249.3C190.1 251.1 188.3 252.6 186.4 253.7C184.5 254.7 182.3 255.1 180.2 255C178.2 254.9 176.3 254 174.8 252.6L174.6 252.4L174.8 252.3C179.1 248.2 182.6 243.3 185.1 238C186 236 186.6 234.5 187 233.4C187.2 232.9 187.3 232.5 187.4 232.2C187.4 232.1 187.5 231.9 187.6 231.8C187.1 234 186.3 236.1 185.4 238.1C183 243.6 179.5 248.5 175.1 252.6V252.3C176.5 253.6 178.3 254.4 180.2 254.5C182.3 254.6 184.3 254.2 186.2 253.3C188.1 252.2 189.8 250.8 191.1 249C192.5 247.1 193.6 245.1 194.6 243L195.1 243.2C194.4 245.4 193.7 247.6 192.9 249.8C190.9 255.2 188.6 260.6 186 265.7L185.8 265.3C188.8 265.5 191.4 266.9 194 267.4C195.2 267.7 196.5 267.8 197.8 267.6C199 267.5 200.1 266.9 201 266.1C201.8 265.3 202.4 264.3 202.9 263.3C203.4 262.3 203.8 261.3 204.2 260.3L206.5 254.9L209.8 247.3L210.7 245.3L210.9 244.8L210.7 244.6Z" fill="#263238"/>
<path d="M244.4 226.9C244.7 228.6 245.3 230.3 246.1 231.9C247 233.7 248.3 235.4 249.8 236.8C251.8 238.6 254.2 239.9 256.8 240.6L257.1 240.7L256.9 241L248.4 251.3L248.2 251.5L248 251.3C245.2 248.3 242.8 244.8 241 241.1L241.5 241C241.5 241.2 241.5 241.5 241.4 241.7C241.1 243.9 241.4 246.2 242.1 248.3C242.8 250.4 244 252.4 245.6 254L245.9 254.3L245.5 254.4C244.4 254.7 243.5 255.3 242.7 256.1C241.9 256.9 241.1 257.6 240.1 258.3C239.2 259 238 259.3 236.9 259.1C236.4 259 235.9 258.7 235.5 258.4C235.1 258.1 234.7 257.7 234.4 257.2C233.9 256.4 233.5 255.5 233.2 254.6C232.8 253.7 232.5 252.9 232.2 252.1C231.6 250.5 231.2 249 230.9 247.6C230.4 245.4 230 243.2 229.7 241C229.6 240.2 229.6 239.6 229.6 239.2C229.6 239 229.6 238.8 229.6 238.6C229.7 238.8 229.7 239 229.7 239.2C229.8 239.6 229.8 240.2 229.9 241C230.2 243.2 230.6 245.4 231.2 247.6C231.6 249 232 250.5 232.6 252.1C232.9 252.9 233.2 253.7 233.6 254.6C233.9 255.5 234.4 256.3 234.8 257.1C235 257.5 235.4 257.9 235.7 258.2C236.1 258.5 236.5 258.7 237 258.8C238 258.9 239 258.6 239.8 258C240.7 257.4 241.5 256.6 242.3 255.9C243.1 255 244.2 254.4 245.3 254L245.2 254.4C243.6 252.7 242.3 250.7 241.6 248.5C240.9 246.3 240.6 244 240.9 241.7C240.9 241.5 241 241.2 241 241L241.1 240.2L241.5 241C243.3 244.7 245.6 248.1 248.4 251.1H248C251.1 247.4 254 244 256.5 240.9L256.6 241.2C253.9 240.5 251.5 239.1 249.5 237.2C248 235.8 246.7 234.1 245.9 232.2C245.3 231 244.9 229.7 244.6 228.4C244.5 228 244.5 227.6 244.5 227.4C244.4 227.2 244.4 227.1 244.4 226.9Z" fill="#263238"/>
<path d="M173.9 214.4C173.9 214.6 173.8 214.7 173.7 214.8C173.5 215.1 173.4 215.5 173.1 216C172.3 217.5 171.5 218.9 170.5 220.2C167.4 224.8 163.5 228.8 159 232.2L158.8 232.4L158.6 232.2L156.9 230.1L153.6 226.1C153 225.5 152.5 224.8 152.1 224C151.9 223.6 151.8 223.1 151.9 222.7C152 222.3 152.2 221.8 152.5 221.5C153.1 221 153.7 220.5 154.4 220.2C155 219.8 155.6 219.4 156.2 219C157.2 218.2 158.2 217.4 159.1 216.5C160.4 215.2 161.5 213.7 162.4 212.1C163.1 211 163.4 210.3 163.4 210.3C163.4 210.5 163.3 210.6 163.2 210.8C163.1 211.1 162.9 211.6 162.6 212.2C161.7 213.9 160.6 215.4 159.4 216.8C158.5 217.7 157.6 218.6 156.5 219.4C155.9 219.8 155.3 220.2 154.7 220.6C154 220.9 153.4 221.4 152.9 221.9C152.6 222.2 152.5 222.5 152.4 222.8C152.4 223.2 152.4 223.5 152.6 223.8C153 224.5 153.5 225.2 154 225.8L157.3 229.8L159 231.9H158.6C163 228.6 166.9 224.7 170.1 220.2C171.3 218.5 172.2 217.1 172.8 216.1C173.2 215.5 173.6 214.9 173.9 214.4Z" fill="#263238"/>
<path d="M280.1 173.4C278.9 173.1 277.7 172.4 276.8 171.5C275.8 170.7 275 169.7 274.5 168.6C274.6 168.5 275.6 169.8 277.2 171.2C278.7 172.4 280.2 173.2 280.1 173.4Z" fill="#263238"/>
<path d="M286.2 166.8C283.5 166.4 280.8 165.8 278.2 164.7C280.9 165.1 283.6 165.8 286.2 166.8Z" fill="#263238"/>
<path d="M125 166.4C125 166.2 127.1 165.5 129.3 163.9C131.6 162.3 133.1 160.6 133.2 160.8C131.4 163.6 128.4 165.6 125 166.4Z" fill="#263238"/>
<path d="M125.7 172.4C126.8 172 128 171.9 129.2 171.9C130.4 171.7 131.6 171.7 132.8 171.9C131.7 172.3 130.5 172.4 129.3 172.4C128.1 172.5 126.9 172.5 125.7 172.4Z" fill="#263238"/>
<path d="M122.7 276.7C123.8 274.7 125.2 272.8 126.9 271.2C126.4 272.3 125.8 273.3 125 274.1C124.4 275.1 123.6 275.9 122.7 276.7Z" fill="#263238"/>
<path d="M265.3 322.8C264.4 322.6 263.5 322.1 262.8 321.4C262.1 320.7 261.7 319.8 261.5 318.9C261.6 318.8 262.2 320 263.2 321C264.2 322.1 265.3 322.7 265.3 322.8Z" fill="#263238"/>
<path d="M268.2 317.6C266.9 317.4 265.8 316.9 264.8 316.1C263.7 315.4 262.8 314.5 262.3 313.4C262.4 313.3 263.5 314.6 265.1 315.7C266.8 316.9 268.3 317.5 268.2 317.6Z" fill="#263238"/>
<path d="M274.6 311.4C270.3 311.4 266.1 310.1 262.6 307.6C262.7 307.5 265.1 308.9 268.4 309.9C271.8 311 274.6 311.2 274.6 311.4Z" fill="#263238"/>
<path d="M120.4 322.9C121.4 322.5 122.4 321.9 123.3 321.3C124.1 320.6 124.9 319.7 125.5 318.9C125.2 320 124.5 321 123.6 321.7C122.7 322.4 121.6 322.8 120.4 322.9Z" fill="#263238"/>
<path d="M118.3 326.8C119.3 326.5 120.4 326.4 121.4 326.4C122.5 326.3 123.5 326.3 124.6 326.5C123.6 326.8 122.5 326.9 121.5 326.9C120.4 327 119.3 327 118.3 326.8Z" fill="#263238"/>
<path d="M599.1 0.300003H117.6V71.3H599.2V0.300003H599.1Z" fill="#000080"/>
<path d="M124.6 71.2L163 0.199997H198.4L161.5 71.2H124.6Z" fill="#4169E1"/>
<path d="M208.4 71.2L246.8 0.199997H282.2L245.3 71.2H208.4Z" fill="#4169E1"/>
<path d="M292.2 71.2L330.6 0.199997H366L329.1 71.2H292.2Z" fill="#4169E1"/>
<path d="M376 71.2L414.4 0.199997H449.8L412.9 71.2H376Z" fill="#4169E1"/>
<path d="M459.9 71.2L498.3 0.199997H533.7L496.8 71.2H459.9Z" fill="#4169E1"/>
<path d="M543.7 71.2L582.1 0.199997H599.1V35.4L580.5 71.1H543.7V71.2Z" fill="#4169E1"/>
<path d="M599.1 71.2C599.1 70.2 599.1 46.2 599 0.2L599.1 0.3L117.6 0.5L117.9 0.2V71.2L117.6 70.9L599.1 71.2L117.5 71.5H117.2V0H117.5L599.1 0.1H599.3V0.2C599.2 46.2 599.2 70.3 599.1 71.2Z" fill="#263238"/>
<path d="M167.4 383L165.3 399.5C165.3 399.5 181.5 406 181.4 409L149 407.3L151.2 381.5L167.4 383Z" fill="#455A64"/>
<path d="M165.9 395.5C165.8 395.6 165.1 395.4 164.2 395.3C163.3 395.3 162.6 395.5 162.5 395.3C162.4 395.2 163.1 394.7 164.2 394.7C165.3 394.9 166 395.4 165.9 395.5Z" fill="#263238"/>
<g opacity="0.3">
<path opacity="0.3" d="M167 386.3L166.6 389.2L150.7 387.6L150.9 384.9L167 386.3Z" fill="black"/>
</g>
<path d="M166.3 392.2C165.8 392.3 165.2 392.2 164.7 392C164.1 391.8 163.6 391.6 163.1 391.3C162.8 391.1 162.5 390.9 162.2 390.7C162 390.6 161.9 390.4 161.7 390.3C161.6 390.2 161.6 390 161.6 389.9C161.6 389.8 161.7 389.6 161.7 389.5C161.8 389.4 161.9 389.3 162 389.3C162.1 389.2 162.3 389.2 162.4 389.2C162.6 389.2 162.8 389.3 163 389.3C163.9 389.6 164.7 390.1 165.4 390.8C166.1 391.6 166.3 392.2 166.2 392.2C166.1 392.2 165.8 391.7 165.1 391.1C164.7 390.7 164.2 390.4 163.7 390.1C163.4 390 163.1 389.8 162.8 389.7C162.5 389.6 162.2 389.5 162.1 389.7C162 389.9 162.1 389.8 162.1 389.9C162.2 390 162.3 390.1 162.4 390.2C162.7 390.4 162.9 390.6 163.2 390.8C163.7 391.1 164.2 391.3 164.7 391.5C165.3 391.8 165.8 392 166.3 392.2Z" fill="#263238"/>
<path d="M166.1 392.4C165.8 391.9 165.7 391.4 165.8 390.8C165.8 390.2 166 389.6 166.2 389.1C166.3 388.8 166.5 388.4 166.7 388.1C166.8 387.9 167 387.7 167.2 387.6C167.4 387.5 167.6 387.4 167.8 387.4C167.9 387.4 168.1 387.5 168.2 387.6C168.3 387.7 168.4 387.8 168.4 388C168.5 388.2 168.5 388.4 168.5 388.6C168.5 389 168.5 389.3 168.4 389.7C168.3 390.3 168 390.8 167.6 391.3C166.9 392.1 166.2 392.2 166.2 392.2C166.6 391.9 167 391.5 167.3 391.1C167.6 390.7 167.8 390.2 167.9 389.6C168 389.3 168 389 167.9 388.7C167.9 388.3 167.8 388.1 167.7 388.1C167.4 388.2 167.2 388.3 167.1 388.6C166.9 388.9 166.8 389.1 166.6 389.4C166.4 389.9 166.2 390.4 166.1 391C166 391.8 166.2 392.4 166.1 392.4Z" fill="#263238"/>
<path d="M203.6 382.8L202.3 399.4C202.3 399.4 218.8 405 218.9 408.1L186.5 408L187.4 382.1L203.6 382.8Z" fill="#455A64"/>
<path d="M202.8 395.4C202.7 395.5 202 395.3 201.1 395.3C200.2 395.3 199.5 395.6 199.4 395.4C199.3 395.2 200 394.7 201.1 394.7C202.1 394.7 202.8 395.3 202.8 395.4Z" fill="#263238"/>
<g opacity="0.3">
<path opacity="0.3" d="M203.4 386.1L203.2 389.1L187.3 388.3L187.4 385.6L203.4 386.1Z" fill="black"/>
</g>
<path d="M175.1 169.5L176.3 196.6C176.5 201.2 177.8 207.9 185.1 207.3C191.4 206.3 192.7 200.2 192.5 195.9C192.4 193.9 192.3 192.2 192.3 192C192.3 192 199.2 191 199.4 184.2C199.5 180.9 199.1 174.1 198.7 167.9C198.5 164.7 197.1 161.7 194.8 159.5C192.5 157.3 189.4 156 186.1 156H185.4C178.4 156.2 174.6 162.5 175.1 169.5Z" fill="#FFBF9D"/>
<path d="M192.4 192C189.2 191.9 186.1 191 183.5 189.2C183.5 189.2 185.6 194.2 192.5 193.7L192.4 192Z" fill="#FF9A6C"/>
<path d="M187.3 171.3C187.2 171.4 186.3 170.9 185.2 170.9C184.1 170.9 183.2 171.5 183.1 171.4C183 171.3 183.2 171.1 183.5 170.8C184 170.4 184.6 170.2 185.2 170.2C185.8 170.2 186.4 170.4 186.9 170.7C187.1 170.9 187.2 171.1 187.3 171.3Z" fill="#263238"/>
<path d="M187.3 173.8C187.3 174 187.2 174.3 187 174.4C186.8 174.6 186.6 174.7 186.4 174.7C186.2 174.7 185.9 174.7 185.7 174.5C185.5 174.4 185.4 174.1 185.4 173.9V173.8C185.4 173.6 185.5 173.3 185.7 173.2C185.9 173 186.1 172.9 186.3 172.9C186.5 172.9 186.8 172.9 187 173.1C187.2 173.3 187.3 173.5 187.3 173.8Z" fill="#263238"/>
<path d="M190.6 179.1C191.2 178.9 191.7 178.8 192.3 178.8C192.6 178.8 192.8 178.7 192.9 178.5C192.9 178.2 192.9 177.9 192.7 177.7L191.9 175.6C191.2 173.9 190.6 172.1 190.2 170.2C191.1 171.9 191.8 173.6 192.3 175.4C192.6 176.1 192.8 176.8 193 177.5C193.2 177.8 193.2 178.2 193.1 178.6C193.1 178.7 193 178.8 192.9 178.8C192.8 178.9 192.7 178.9 192.6 178.9C192.4 178.9 192.3 179 192.1 179C191.8 179.2 191.2 179.2 190.6 179.1Z" fill="#263238"/>
<path d="M186.5 167.7C186.4 168 185.5 167.8 184.4 167.9C183.3 168 182.4 168.3 182.3 168.1C182.1 167.9 182.4 167.7 182.8 167.5C183.3 167.2 183.8 167 184.4 167C185 166.9 185.5 167 186.1 167.2C186.4 167.3 186.6 167.6 186.5 167.7Z" fill="#263238"/>
<path d="M197.4 167.8C197.3 168 196.4 167.8 195.3 167.9C194.2 168 193.3 168.1 193.2 167.9C193.1 167.7 193.3 167.6 193.7 167.4C194.2 167.2 194.7 167 195.3 167C195.9 167 196.4 167.1 196.9 167.3C197.2 167.6 197.4 167.7 197.4 167.8Z" fill="#263238"/>
<path d="M175.6 174.6C175.5 174.5 170.9 173.1 171 177.8C171.1 182.5 175.8 181.4 175.8 181.3C175.8 181.2 175.6 174.6 175.6 174.6Z" fill="#FFBF9D"/>
<path d="M174.3 179.6L174.1 179.7C173.9 179.8 173.7 179.8 173.5 179.7C173.2 179.5 172.9 179.3 172.8 178.9C172.6 178.6 172.5 178.2 172.6 177.9C172.6 177.5 172.7 177.1 172.8 176.7C172.8 176.6 172.9 176.4 173 176.3C173.1 176.2 173.2 176.1 173.4 176.1C173.5 176.1 173.6 176.1 173.7 176.1C173.8 176.1 173.9 176.2 173.9 176.3C174 176.4 173.9 176.5 174 176.5C174.1 176.5 174.1 176.4 174.1 176.2C174.1 176.1 174.1 176.1 174 176C174 175.9 173.9 175.9 173.9 175.9C173.8 175.8 173.6 175.8 173.4 175.8C173.2 175.8 173 175.9 172.9 176.1C172.8 176.2 172.6 176.4 172.6 176.6C172.4 177 172.3 177.5 172.3 177.9C172.3 178.3 172.4 178.7 172.6 179.1C172.8 179.4 173.1 179.7 173.5 179.9C173.6 179.9 173.8 179.9 173.9 179.9C174 179.9 174.2 179.8 174.3 179.7V179.6Z" fill="#FF9A6C"/>
<path d="M189.7 182.4C189.7 182.3 188.8 182.1 188.1 181.2C187.8 180.8 187.6 180.4 187.4 180C187.2 179.7 187.1 179.5 187.1 179.5C187.1 179.5 187.1 179.7 187.2 180.1C187.3 180.6 187.6 181 187.9 181.4C188.2 181.8 188.7 182.1 189.1 182.2C189.4 182.4 189.7 182.4 189.7 182.4Z" fill="#263238"/>
<path d="M169 167.4C169.9 165.7 170 163.7 170.4 161.8C170.8 159.9 171.7 158 173.5 157.2C174.3 156.8 175.1 156.6 176 156.6C176.9 156.6 177.7 156.9 178.5 157.4C178.7 156.2 179.2 155 180 154.1C180.8 153.2 181.9 152.5 183.1 152.1C185.9 151.4 188.9 151.4 191.6 152.3C193.4 152.9 195.2 154.3 197.4 156.3C198.3 157.1 199.2 158.1 200 159L202.4 165.3L200.8 168.7C200.7 168.9 200.6 169.2 200.5 169.4L199.3 176.5C199.1 174.5 198.8 167.9 198.6 166C197.1 166 195.7 165.8 194.3 165.3C192.9 164.8 191.7 164 190.7 163C189.6 161.9 188.7 160.5 187.2 159.9C185.3 159.1 183.2 159.9 181.3 160.7L181.4 160.6C180.4 161.1 179.6 161.8 178.9 162.7C179.5 166.5 179.4 170.3 178.4 174C178.3 174.6 177.8 175.7 177.3 176C176.3 176.5 175.9 175.4 175.3 174.9C174.7 174.5 174 174.4 173.3 174.5C172.7 172.9 172.2 171.3 171.7 169.7C171.1 169.9 170.4 170 169.7 169.9C169.9 169.4 170 168.9 170.2 168.4C170 168.6 169.7 168.7 169.4 168.8C169.2 168.8 169.1 168.8 168.9 168.8C168.8 168.7 168.6 168.6 168.5 168.5C168.6 168.2 168.7 167.8 169 167.4Z" fill="#263238"/>
<path d="M180.8 158.2C180.6 158.4 180.3 158.6 180.2 158.9C179.7 159.6 179.4 160.4 179.3 161.2C179.2 161.8 179.2 162.4 179.2 162.9C179.2 163.6 179.3 164.2 179.4 164.9C179.5 165.6 179.6 166.4 179.6 167.1C179.6 167.5 179.6 167.9 179.5 168.3C179.5 168.7 179.3 169.1 179.1 169.5C179 169.6 178.8 169.8 178.7 169.8C178.5 169.9 178.3 169.9 178.2 169.8C177.9 169.8 177.5 169.6 177.3 169.4C176.9 168.9 176.6 168.3 176.5 167.7H176.7C176.5 168.2 176.3 168.7 176 169.2C175.7 169.6 175.2 169.9 174.7 170C174.5 170 174.2 170 174 169.9C173.8 169.8 173.6 169.7 173.5 169.5C173.4 169.3 173.3 169.1 173.3 168.9C173.3 168.7 173.4 168.5 173.5 168.4L173.6 168.5C173.2 169 172.7 169.4 172.2 169.7C172.1 169.8 171.9 169.8 171.8 169.9H171.6L171.7 169.8C171.8 169.7 171.9 169.7 172.1 169.6C172.6 169.3 173.1 168.9 173.5 168.4L173.6 168.5C173.5 168.6 173.5 168.8 173.5 169C173.5 169.2 173.6 169.3 173.6 169.5C173.7 169.7 173.9 169.8 174.1 169.9C174.3 170 174.5 170 174.7 170C175.2 169.9 175.6 169.6 175.9 169.2C176.2 168.8 176.5 168.3 176.6 167.8L176.7 167.6L176.8 167.8C176.9 168.4 177.1 169 177.5 169.4C177.7 169.6 178 169.8 178.3 169.8C178.5 169.8 178.6 169.8 178.7 169.7C178.8 169.6 179 169.6 179.1 169.4C179.3 169.1 179.5 168.7 179.5 168.3C179.6 167.9 179.6 167.5 179.6 167.1C179.6 166.4 179.5 165.6 179.4 164.9C179.3 164.2 179.2 163.5 179.2 162.9C179.2 162.3 179.2 161.7 179.3 161.1C179.4 160.2 179.8 159.4 180.3 158.8C180.2 158.4 180.5 158.3 180.8 158.2Z" fill="#455A64"/>
<path d="M202.3 163.6L202.1 163.7C202 163.8 201.9 163.8 201.8 163.9C201.7 164 201.5 164.1 201.4 164.1C200.5 164.6 199.5 164.8 198.5 164.8C197 164.8 195.5 164.3 194.3 163.5C192.8 162.5 191.5 161.1 190.5 159.6C190 158.8 189.5 158 189 157.2C188.5 156.5 188 155.8 187.3 155.2C186.7 154.7 186 154.3 185.3 154.1C185 154 184.6 154 184.2 154C183.9 154 183.5 154.1 183.2 154.2C182.7 154.4 182.2 154.8 181.8 155.2C181.5 155.5 181.3 155.9 181.1 156.2C181 156.5 180.9 156.9 180.8 157.2V156.9C180.8 156.6 180.9 156.4 181 156.1C181.2 155.7 181.4 155.3 181.7 155C182.1 154.6 182.6 154.2 183.1 154C183.4 153.9 183.7 153.8 184.1 153.7C184.5 153.7 184.8 153.7 185.2 153.7C186 153.9 186.7 154.3 187.3 154.8C188 155.4 188.5 156.1 189 156.8C189.5 157.6 190 158.4 190.5 159.2C191.5 160.7 192.7 162 194.2 163C195.4 163.8 196.9 164.3 198.3 164.3C199.3 164.3 200.3 164.1 201.2 163.7C201.7 164 202 163.8 202.3 163.6Z" fill="#455A64"/>
<path d="M197.8 171.1C197.7 171.2 196.8 170.7 195.7 170.7C194.6 170.7 193.7 171.3 193.6 171.2C193.5 171.1 193.7 170.9 194 170.6C194.5 170.2 195.1 170 195.7 170C196.3 170 196.9 170.2 197.4 170.5C197.7 170.8 197.8 171.1 197.8 171.1Z" fill="#263238"/>
<path d="M197.2 173.8C197.2 174 197.1 174.3 196.9 174.4C196.7 174.6 196.5 174.7 196.3 174.7C196.1 174.7 195.8 174.7 195.6 174.5C195.4 174.4 195.3 174.1 195.3 173.9V173.8C195.3 173.6 195.4 173.3 195.6 173.2C195.8 173 196 172.9 196.2 172.9C196.4 172.9 196.7 172.9 196.9 173.1C197 173.3 197.1 173.5 197.2 173.8Z" fill="#263238"/>
<path d="M199.4 158.4C199.7 158.8 200.1 159.1 200.5 159.3C200.9 159.5 201.4 159.6 201.9 159.6C202.2 159.5 202.6 159.4 202.9 159.3C203.2 159.5 203.2 160.6 203 161C202.8 161.3 202.6 161.5 202.3 161.8C203.5 162.4 204.5 162 205.7 161.5C205.6 162.5 205.3 163.5 204.7 164.4C204.1 165.3 203.3 165.9 202.4 166.4C202.1 166.6 201.8 166.7 201.5 166.7C201.2 166.7 200.8 166.7 200.5 166.5C200 166.1 199.7 165.6 199.6 165.1C199 163.1 198.6 161 198.5 158.9L199.4 158.4Z" fill="#263238"/>
<path d="M212.7 241.7L210.8 232.1H205.5L205.1 247.4L216.6 251.4L223.5 247L212.7 241.7Z" fill="#FFBF9D"/>
<path d="M200 198.8C200.5 199 209.4 203 210.6 208.9C211.8 214.8 214.1 232.7 214.1 232.7L204.9 232L200 198.8Z" fill="#E0E0E0"/>
<path d="M155.7 217.4L157.8 251.5L162.1 263.5L202.9 258.2L200.5 199.1L192.5 195.4C192.5 195.4 192.4 202.4 187.1 201.5C181.7 200.6 175.3 193.3 176.3 194.1L161.8 197.2L155.7 217.4Z" fill="#E0E0E0"/>
<path d="M162.9 196.8C162.9 196.8 156.5 197.9 153.5 203C150.5 208.1 143.5 225.1 143.5 225.1L163 233.5C163 233.5 172.6 215.2 172.3 210.4C172 205.6 162.9 196.8 162.9 196.8Z" fill="#E0E0E0"/>
<path d="M169.5 216.1C169.4 216.6 169.2 217 169 217.5C168.6 218.5 168.2 219.7 167.6 221.2C166.4 224.3 164.7 228.7 162.8 233.5L162.7 233.7L162.5 233.6L161.5 233.2C156.5 231 152 229 148.7 227.6L144.8 225.8C144.3 225.6 143.9 225.4 143.4 225.1C143.9 225.2 144.4 225.4 144.9 225.6L148.8 227.2C152.1 228.6 156.7 230.5 161.7 232.7L162.7 233.1L162.4 233.2C164.4 228.4 166.1 224 167.3 220.9C167.9 219.4 168.4 218.2 168.8 217.2C169 216.9 169.2 216.5 169.5 216.1Z" fill="#263238"/>
<path d="M169.9 211.5C169.8 211.5 170 210.5 169.9 208.9C169.8 206.9 169.2 204.9 168.1 203.1C167 201.4 165.6 199.9 163.8 198.8C162.5 198 161.5 197.7 161.5 197.6C161.7 197.6 162 197.6 162.2 197.7C162.8 197.9 163.4 198.1 164 198.4C165.9 199.4 167.5 200.9 168.6 202.7C169.7 204.5 170.3 206.6 170.3 208.7C170.3 209.3 170.3 210 170.1 210.6C170 211 170 211.2 169.9 211.5Z" fill="#263238"/>
<path d="M179.3 223L205.9 221.9L207.7 259.4L209 279.8L207.8 396.3H186.3L184.1 342.2L184.3 314.7L184.9 302.5L176.7 349L170.6 398.6L145.9 396C145.9 396 149.7 353.5 150.9 344.8C152.1 336.1 157.9 290.1 157.9 289C157.9 288 160.3 263.4 160.3 263.4L160.6 258.7C160.6 258.7 171.9 255.6 175 249.3C177.9 243 179.3 223 179.3 223Z" fill="#4169E1"/>
<path d="M180.8 210.8C174.8 199.6 170.1 195.2 170.1 195.2L166 196.2C170.8 196.5 180 223.6 180 223.6L185.7 223.4C185.7 223.3 185.9 220.3 180.8 210.8Z" fill="#4169E1"/>
<path d="M202.4 199.4L198.5 197.9L198.6 198.5C198.6 199 200.9 223.5 200.9 223.5L204.6 222.6L202.4 199.4Z" fill="#4169E1"/>
<path d="M170.9 267.6C171.1 268.3 171.1 269 171 269.6C170.8 271.3 170 272.8 168.8 274C167.6 275.2 166.1 276 164.5 276.4C163.8 276.6 163.1 276.6 162.5 276.4C162.5 276.3 163.3 276.3 164.5 276C166 275.6 167.4 274.8 168.5 273.6C169.6 272.5 170.3 271 170.7 269.5C170.9 268.4 170.9 267.6 170.9 267.6Z" fill="#263238"/>
<path d="M189.3 283.4C189.3 284.5 189.2 285.7 188.9 286.8C188.5 288.9 187.8 291.7 186.9 294.7C186.1 297.7 185.4 300.6 184.9 302.6C184.7 303.7 184.5 304.8 184.1 305.9C184.1 305.6 184.1 305.3 184.1 305C184.2 304.4 184.3 303.6 184.5 302.6C184.9 300.5 185.6 297.7 186.4 294.7C187.2 291.6 188 288.8 188.5 286.8C189 284.6 189.2 283.4 189.3 283.4Z" fill="#263238"/>
<g opacity="0.3">
<path opacity="0.3" d="M189.1 284.8C189.1 285.1 191.4 309.7 184.2 313.6L184.7 302.4L189.1 284.8Z" fill="black"/>
</g>
<path d="M199.6 251.4L198.9 247.2L185 245.6C185 245.6 176.6 265.3 176.4 265.8C176.4 265.8 188.5 274.7 190.3 274.2C191.8 273.7 197.5 261.5 199 258.2C199.2 257.7 199.3 257.1 199.2 256.5L198.3 252.1L199.6 251.4ZM195 261.8L190.7 270C190.5 270.5 190 270.8 189.5 271C189 271.2 188.4 271.1 187.9 270.9L187.7 270.8L181.7 267L182.2 264.2L187.9 253.2L192.1 255L192.9 255.4C193.6 255.7 194.2 256.2 194.6 256.9C195 257.5 195.2 258.3 195.2 259.1V260.1C195.4 260.6 195.3 261.2 195 261.8Z" fill="#263238"/>
<path d="M174.3 251.4H185.8C185.8 251.4 192.8 254.9 193.1 255.3C193.5 256.5 193.8 257.8 194.1 259C194.2 259.2 194.1 259.5 194 259.7C193.9 259.9 193.7 260.1 193.4 260.2L192.6 259.9L191.8 262.5L192.2 264.8C192.2 264.8 192.1 266 191 265.7C190 265.4 184.2 259.9 184.2 259.9V260.6C184.2 260.6 190.7 266.5 190.4 267.7C190.1 268.9 188.5 269.3 188.1 268.9C187.7 268.5 181.7 263.4 181.7 263.4C181.7 263.4 176.2 262.4 174.3 261.4C172.4 260.4 168.5 257.9 168.5 257.9L174.3 251.4Z" fill="#FFBF9D"/>
<path d="M154.2 239.1L158.1 231.8L145.2 226.1L138.1 242.7C138.1 242.7 136.7 245.7 140.2 248.2C142.6 249.9 169.8 258.9 169.8 258.9L176.4 252.1L154.2 239.1Z" fill="#FFBF9D"/>
<path d="M185.6 256.9C185.6 256.8 186.1 256.8 186.8 257.3C187.6 257.9 188.4 258.6 189.1 259.3C190.1 260.3 191 261.4 191.7 262.7C190.6 261.8 189.7 260.8 188.8 259.7C188.1 259 187.4 258.3 186.7 257.6C186.1 257.1 185.6 257 185.6 256.9Z" fill="#FF9A6C"/>
<path d="M187.3 254.4C187.7 254.4 188.1 254.6 188.5 254.8C189.4 255.3 190.2 255.9 190.9 256.6C191.6 257.3 192.1 258.2 192.4 259.2C192.6 259.6 192.6 260 192.5 260.4C192 259.1 191.4 257.9 190.5 256.9C189.6 256 188.5 255.2 187.3 254.4Z" fill="#FF9A6C"/>
<path d="M235.4 240.6L198.4 247.2L199.6 251.5L236.3 244.3L235.4 240.6Z" fill="#263238"/>
<path d="M218.2 243.6C218.2 243.6 221 240.6 222.4 240.2C223.8 239.8 227.5 239.3 227.8 239.8C228.1 240.1 228.3 240.4 228.4 240.8C228.4 241.2 228.3 241.6 228.1 241.9C228.1 242 228 242 228 242.1C227.8 242.3 227.4 242.5 227.1 242.5C226.8 242.5 226.4 242.5 226.1 242.3L218.2 243.6Z" fill="#FFBF9D"/>
<path d="M235.7 241.6L266.2 236.1L266.6 238.4L236.1 243.4L235.7 241.6Z" fill="#E0E0E0"/>
<path d="M273.8 238.7L266.1 239.4L265.2 235.1L272.5 232.6L273.8 238.7Z" fill="#263238"/>
<path d="M215.1 249.2C215.1 249.2 217.4 253.6 219.3 252.9C221.1 252.2 221 251.1 221 251.1C221 251.1 221.2 253.7 223 253C224.8 252.3 224.7 251.2 224.7 251.2C225 251.5 225.5 251.7 225.9 251.7C226.4 251.7 226.8 251.5 227.1 251.2C227.9 250.7 228.6 250 229.1 249.2C229.1 249.2 230.4 243.8 229.1 243.7C228.4 243.6 227.6 243.8 227 244.2C227 244.2 226.8 242.4 225.4 242.6C225 242.7 224.6 242.9 224.4 243.2C224.2 243.5 224 243.9 224.1 244.3C224.1 244.3 223.7 242.8 222.5 243C222.2 243.1 221.9 243.2 221.7 243.5C221.5 243.8 221.4 244.1 221.4 244.4C221.4 244.4 220.7 242.4 219.4 243.1C218.2 243.7 218.4 245.8 218.4 245.8L217.4 249L215.1 249.2Z" fill="#FFBF9D"/>
<path d="M221.3 244.5C221.9 245.5 222.1 246.7 221.9 247.8C221.9 249 221.6 250.1 221 251.1C220.9 251 221.3 249.6 221.4 247.8C221.5 246 221.1 244.5 221.3 244.5Z" fill="#FF9A6C"/>
<path d="M224.7 251.3C224.6 251.3 224.7 249.7 224.6 247.7C224.5 245.7 223.9 244.2 224.1 244.1C224.7 245.2 225.1 246.4 225.1 247.6C225.3 248.9 225.1 250.1 224.7 251.3Z" fill="#FF9A6C"/>
<path d="M226.9 251C226.8 250.9 227.3 249.5 227.3 247.6C227.3 245.7 226.8 244.2 227 244.2C227.6 245.2 227.9 246.4 227.8 247.6C227.9 248.8 227.6 250 226.9 251Z" fill="#FF9A6C"/>
<path d="M321.2 218C321.2 218.1 310.7 221.8 297.7 226.2C284.7 230.6 274.1 234.1 274.1 233.9C274.1 233.7 284.6 230.1 297.6 225.7C310.6 221.4 321.1 217.9 321.2 218Z" fill="white"/>
<path d="M297.5 231.5C295 232.2 292.4 232.7 289.8 233C287.2 233.5 284.6 233.8 282 234C284.5 233.3 287.1 232.8 289.7 232.5C292.2 232 294.8 231.6 297.5 231.5Z" fill="white"/>
<path d="M317.7 237.7C317.7 237.8 308.4 237.9 296.9 237.9C285.4 237.8 276.1 237.7 276.1 237.5C276.1 237.4 285.4 237.3 296.9 237.4C308.4 237.5 317.7 237.6 317.7 237.7Z" fill="white"/>
<path d="M282.5 225.2C281.5 226.4 280.3 227.4 279 228.3C277.8 229.3 276.6 230.2 275.2 231C277.4 228.9 279.9 226.9 282.5 225.2Z" fill="white"/>
<path d="M286.1 241.8C284.4 241.9 282.8 241.8 281.1 241.5C279.4 241.3 277.8 240.9 276.3 240.3C278 240.4 279.6 240.7 281.2 241C282.9 241.2 284.5 241.5 286.1 241.8Z" fill="white"/>
<path d="M478 189.3C475.9 194.2 473.3 198.8 470.3 203.2C469.2 204.8 467.9 206.4 466.2 207C463.8 207.9 461.1 206.9 458.8 205.7C456.5 204.5 454.3 202.9 451.8 202.7C456.8 197.9 461.2 192.5 464.9 186.6C459.1 188.4 453.6 190.7 448.3 193.6L441.1 186.7C445.3 185.2 449.2 182.8 452.3 179.6" fill="#4169E1"/>
</g>
<defs>
<clipPath id="clip0_708_866">
<rect width="689" height="410" fill="white"/>
</clipPath>
</defs>
</svg>
