<?xml version="1.0" encoding="utf-8"?>
<!-- Generator: Adobe Illustrator 25.0.0, SVG Export Plug-In . SVG Version: 6.00 Build 0)  -->
<svg version="1.1" id="Calque_1" xmlns="http://www.w3.org/2000/svg" xmlns:xlink="http://www.w3.org/1999/xlink" x="0px" y="0px"
	 viewBox="0 0 841.89 595.28" style="enable-background:new 0 0 841.89 595.28;" xml:space="preserve">
<style type="text/css">
	.st0{fill:#2A4C9B;}
</style>
<g>
	<path class="st0" d="M291.49,359.21c-0.13-1.22-0.26-3.18-0.55-5.09c-1.75-11.66-9.82-21.87-20.14-20.44
		c-11.84,1.63-19.63,19.17-15.78,33.86c3.34,12.77,8.74,23.84,14.37,34.67c1.73,3.32,5.27,2.93,7.03-0.49
		c4.29-8.37,8.36-16.95,11.64-26.24C289.77,370.59,291.38,365.61,291.49,359.21z"/>
	<path class="st0" d="M272.27,369.03c-4.73-0.01-8.54-5.45-8.53-12.18c0.01-6.67,3.88-12.23,8.55-12.26
		c4.71-0.04,8.65,5.63,8.61,12.4C280.86,363.7,277.04,369.04,272.27,369.03z"/>
	<path class="st0" d="M345.51,420.78c-10.45,0.43-15.3,5.81-14.63,17.84c-1.96-9.83-3.93-19.02-16.1-17.39
		c9.66-1.65,16.39-5.53,15.31-18.86C330.59,414.33,334.91,420.57,345.51,420.78z"/>
	<path class="st0" d="M650.95,308.52c-10.45,0.43-15.3,5.81-14.63,17.84c-1.96-9.83-3.93-19.02-16.1-17.39
		c9.66-1.65,16.39-5.53,15.31-18.86C636.04,302.07,640.36,308.32,650.95,308.52z"/>
	<path class="st0" d="M575.08,174.81c-6.06,0.25-8.87,3.37-8.48,10.35c-1.14-5.7-2.28-11.03-9.34-10.09c5.6-0.96,9.5-3.2,8.88-10.94
		C566.43,171.07,568.94,174.69,575.08,174.81z"/>
	<path class="st0" d="M569.62,496.53c-10.45,0.43-15.3,5.81-14.63,17.84c-1.96-9.83-3.93-19.02-16.1-17.39
		c9.66-1.65,16.39-5.53,15.31-18.86C554.7,490.07,559.02,496.32,569.62,496.53z"/>
	<path class="st0" d="M300.99,156.31c-10.45,0.43-15.3,5.81-14.63,17.84c-1.96-9.83-3.93-19.02-16.1-17.39
		c9.66-1.65,16.39-5.53,15.31-18.86C286.07,149.86,290.39,156.1,300.99,156.31z"/>
	<path class="st0" d="M197.39,317.49c-4.06,0.17-5.94,2.26-5.68,6.93c-0.76-3.82-1.53-7.39-6.25-6.76c3.75-0.64,6.36-2.15,5.95-7.32
		C191.6,314.98,193.28,317.41,197.39,317.49z"/>
	<g>
		<g>
			<path class="st0" d="M118.79,335.69h7.33l23.44,68.83h-12.44l-14.67-47l-14.67,47H95.35L118.79,335.69z M106.6,380.99h32.25v12.5
				H106.6V380.99z"/>
			<path class="st0" d="M166.55,402.22c-3.34-2-5.89-4.92-7.63-8.76c-1.74-3.83-2.61-8.45-2.61-13.85v-43.93h11.55v44.26
				c0,3.95,0.94,7.01,2.82,9.18c1.88,2.18,4.54,3.27,7.97,3.27c3.46,0,6.13-1.09,8.03-3.27c1.9-2.18,2.85-5.24,2.85-9.18v-44.26
				h11.55v43.93c0,5.4-0.88,10.01-2.63,13.85c-1.76,3.83-4.31,6.75-7.67,8.76c-3.36,2-7.4,3.01-12.12,3.01
				C173.92,405.23,169.89,404.23,166.55,402.22z"/>
			<path class="st0" d="M205.29,335.69h44.94v12.5h-44.94V335.69z M221.98,341.33h11.55v63.19h-11.55V341.33z"/>
			<path class="st0" d="M354.01,373.61v12.5H324v-12.5H354.01z"/>
			<path class="st0" d="M414.59,335.69h9.27l11.72,45.92l7.88-45.92h11.89l-14.12,68.83h-10.88l-10.88-48.09l-11.38,48.09h-10.88
				l-14.12-68.83h11.89l7.88,45.92L414.59,335.69z"/>
			<path class="st0" d="M480.05,335.69h7.33l23.44,68.83h-12.44l-14.67-47l-14.67,47h-12.44L480.05,335.69z M467.87,380.99h32.25
				v12.5h-32.25V380.99z"/>
			<path class="st0" d="M529.1,404.24c-2.8-0.66-5.42-1.63-7.88-2.91s-4.66-2.82-6.6-4.62l5.35-10.7c2.36,2.18,5.09,3.86,8.18,5.04
				c3.09,1.18,6.27,1.77,9.53,1.77c3.77,0,6.69-0.72,8.77-2.15c2.08-1.44,3.12-3.46,3.12-6.08v-0.05c0-1.83-0.46-3.28-1.39-4.36
				c-0.93-1.07-2.14-1.86-3.62-2.37c-1.49-0.5-3.4-0.96-5.73-1.37c-0.08-0.03-0.16-0.05-0.23-0.05c-0.07,0-0.15-0.01-0.23-0.05
				l-0.93-0.14c-4.1-0.73-7.5-1.63-10.2-2.72c-2.7-1.09-4.99-3-6.87-5.73c-1.88-2.73-2.82-6.6-2.82-11.62v-0.05
				c0-4.45,0.89-8.25,2.66-11.41c1.77-3.16,4.34-5.56,7.71-7.22c3.37-1.66,7.45-2.49,12.23-2.49c2.19,0,4.43,0.28,6.72,0.85
				c2.29,0.57,4.53,1.39,6.72,2.46c2.19,1.07,4.27,2.37,6.24,3.88l-4.89,10.98c-2.36-1.83-4.83-3.25-7.4-4.26
				c-2.57-1.01-5.04-1.51-7.4-1.51c-3.54,0-6.28,0.66-8.22,1.96c-1.94,1.31-2.91,3.15-2.91,5.52v0.05c0,1.99,0.51,3.56,1.52,4.71
				c1.01,1.15,2.26,2,3.75,2.53c1.49,0.54,3.58,1.11,6.28,1.7c0.11,0.03,0.22,0.06,0.34,0.07c0.11,0.02,0.22,0.04,0.34,0.07
				c0.17,0.03,0.33,0.07,0.48,0.12c0.15,0.05,0.32,0.09,0.49,0.12c3.88,0.85,7.12,1.89,9.72,3.1c2.6,1.21,4.77,3.17,6.51,5.87
				c1.74,2.7,2.61,6.38,2.61,11.05v0.09c0,4.39-0.91,8.14-2.74,11.27s-4.49,5.51-7.99,7.15s-7.71,2.46-12.62,2.46
				C534.76,405.23,531.9,404.9,529.1,404.24z"/>
			<path class="st0" d="M571.57,335.69h11.55v68.83h-11.55V335.69z M576.93,364.14h35.71v12.5h-35.71V364.14z M605.13,335.69h11.55
				v68.83h-11.55V335.69z"/>
			<path class="st0" d="M641.3,404.52h-11.97v-68.83h11.97V404.52z"/>
			<path class="st0" d="M653.94,335.69h14.12l22.81,52.73l-1.01,1.23v-53.96h11.04v68.78H686.7l-22.72-51.93l1.01-1.23v53.16h-11.04
				V335.69z"/>
			<path class="st0" d="M757.98,366.04v13.44c0,5.11-0.92,9.62-2.76,13.51c-1.84,3.9-4.45,6.91-7.82,9.04
				c-3.37,2.13-7.28,3.2-11.72,3.2c-4.47,0-8.41-1-11.82-3.01c-3.42-2-6.06-4.84-7.93-8.5c-1.87-3.66-2.8-7.91-2.8-12.73v-20.31
				c0-5.11,0.92-9.61,2.76-13.49s4.45-6.89,7.82-9.02c3.37-2.13,7.28-3.2,11.72-3.2c3.65,0,7.03,0.84,10.12,2.53
				c3.09,1.69,5.67,4.08,7.74,7.17s3.46,6.67,4.19,10.75H745c-0.42-1.45-1.12-2.71-2.09-3.76s-2.11-1.86-3.42-2.41
				c-1.31-0.55-2.66-0.83-4.07-0.83c-2.05,0-3.86,0.51-5.42,1.51c-1.56,1.01-2.77,2.45-3.62,4.31c-0.86,1.86-1.29,4.01-1.29,6.44
				v20.31c0,2.15,0.44,4.04,1.31,5.68c0.87,1.64,2.11,2.9,3.71,3.79s3.46,1.33,5.56,1.33c2.08,0,3.9-0.48,5.46-1.44
				s2.76-2.36,3.6-4.19c0.84-1.83,1.26-3.99,1.26-6.49v-1.14h-9.27v-12.5H757.98z"/>
		</g>
	</g>
	<rect x="96.12" y="418.87" class="st0" width="653.2" height="10.88"/>
	<path class="st0" d="M248.26,296.88c0.31-7.22-2.71-10.46-9.29-10.68c6.53-0.49,9.64-3.9,9.5-11.5c0.82,6.85,2.3,12.15,9.92,10.7
		C250.68,288.67,250.68,288.67,248.26,296.88z"/>
	<path class="st0" d="M246.57,294.73c0.29-6.7-2.52-9.71-8.63-9.92c6.06-0.46,8.96-3.62,8.82-10.68c0.76,6.36,2.14,11.29,9.21,9.94
		C248.81,287.11,248.81,287.11,246.57,294.73z"/>
	<path class="st0" d="M751.4,325.07c-21.27,0-42.56-0.58-63.81,0.22c-12.64,0.48-11.54-9.8-13.42-18.19
		c-20.65-92.54-68.77-160.32-145.9-200.64c-147-76.84-322.44,20.01-359.26,197.69c-1.27,6.12-2.72,12.2-4.7,21.03
		c-12.23,0-24.61,0-36.98,0c-12.21,0-24.41,0-36.62,0c-0.07-1.21-0.14-2.43-0.22-3.64c13.96-3.16,27.83-7.04,41.9-9.28
		c12.62-2.01,19.1-8.15,22.8-22.8c35.4-140.26,143.76-230.3,273.03-227.94c118.26,2.16,223.47,91.68,257.13,220.75
		c5.16,19.78,12.56,29.88,30.93,31.32c11.7,0.92,23.19,5.16,34.78,7.91C751.18,322.69,751.29,323.88,751.4,325.07z"/>
	<path class="st0" d="M554.25,453.56c-72.07,82.4-205.09,75.25-265.88-5.75c11.08,4.03,23.25,5.98,33.07,12.43
		c65.84,43.26,131.18,43.21,197.24,0.7c10.22-6.58,22.37-9.35,33.63-13.89C552.96,449.23,553.61,451.39,554.25,453.56z"/>
	<path class="st0" d="M746.35,445.53c-29.83,4.2-59.82,7.36-89.4,13.18c-10.09,1.98-21.63,8.14-28.28,16.59
		C516.15,618.3,321.49,618.34,209.9,475.38c-6.62-8.49-18.18-14.69-28.28-16.69c-28.88-5.73-58.19-8.74-87.12-15.72
		c34.68,0,69.38-0.8,104.01,0.66c7.11,0.3,15.55,7.55,20.66,14.22c74.63,97.6,187.06,130.96,293.39,85.99
		c42.02-17.77,77.4-46.57,105.57-85.68c8.44-11.72,17.14-15.92,30.25-15.52c32.62,0.99,65.27,0.33,97.91,0.33
		C746.31,443.82,746.33,444.67,746.35,445.53z"/>
	<path class="st0" d="M568.62,215.56c6.6-19.87,18.91-26.25,29.49-15.25c2.31,2.4,1.8,13.79-0.35,15.14
		c-15.15,9.51-31.07,17.49-48.29,26.78c2.51-4.14,4.22-6.95,7.07-11.64c-91.03,0-180.77,0-272.03,0c2.34,4.27,4.06,7.39,7.18,13.08
		c-9.51-5.3-17.13-9.2-24.44-13.74c-5.26-3.27-10.04-7.5-15.14-11.1c-4.86-3.43-9.85-6.6-14.79-9.89
		c3.57-4.13,6.93-11.35,10.77-11.7c6.4-0.57,13.48,2.41,19.52,5.68c2.19,1.18,2.19,7.46,3.56,12.9c4.01-5.3,8.17-9.46,10.86-14.58
		c17.76-33.84,44.02-51.92,78.89-51.89c45.49,0.04,91.02,0.51,136.45,2.85c21.84,1.13,39.51,13.87,51.78,35.28
		C554.73,197.23,561.85,205.9,568.62,215.56z M480.27,220.15c28.23,0,51.91,0,81.4,0c-16.99-22.35-31.1-40.91-43.88-57.71
		c-11.73,10.62-21.29,16.48-27.15,25.41C485.38,195.85,484.18,207.22,480.27,220.15z"/>
	<path class="st0" d="M592.5,237.67c22.65,8.62,26.17,17.17,23.39,48.65c-1.85,20.93-14.36,25.54-29.61,26.12
		c-14.08,0.54-28.18,0.11-42.27,0.11c-1.19-1.67-2.38-3.35-3.58-5.02c9.08-8.08,17.53-17.35,27.39-23.97
		C583.51,273.02,596.88,261.85,592.5,237.67z"/>
	<path class="st0" d="M299.64,313.13c-18.28,0-33.6,0.27-48.9-0.07c-15.83-0.35-25.12-8.58-26.15-27.49
		c-1.8-32.85,1.17-39.48,22.91-45.23C241.42,284.27,288.45,280.28,299.64,313.13z"/>
	<path class="st0" d="M196.97,120.51c2.44,14.87-5.89,29.66-18.36,32.62c-13.06,3.09-25.94-6.48-28.88-21.47
		c-2.86-14.56,5.73-29.11,19.08-32.33c12.89-3.11,24.77,6.03,28.18,21.68c-1.57-2.15-2.82-4.84-4.79-6.37
		c-5.84-4.55-12.01-2.89-14.2,3.79c-1.35,4.14,0.56,12.23,3.59,14.98c4.79,4.37,10.99,2.66,13.97-4.73
		C196.55,126.23,196.53,123.25,196.97,120.51z"/>
	<path class="st0" d="M576.45,92.54c-4.77-9.6-2.11-21.97,5.86-27.27c8.35-5.55,19.2-2.34,24.34,7.21
		c4.99,9.28,2.11,21.54-6.42,27.26c-8.23,5.52-18.31,2.34-23.91-7.54c1.53,1.07,2.95,2.59,4.62,3.13c4.96,1.61,8.87-1.16,8.99-6.33
		c0.07-3.21-2.93-8.27-5.58-9.38c-4.21-1.75-8.12,1.05-8.64,6.92C575.55,88.49,576.19,90.54,576.45,92.54z"/>
	<path class="st0" d="M526.08,70.4c-1.5-3.02-0.66-6.9,1.84-8.57c2.62-1.75,6.04-0.73,7.65,2.27c1.57,2.92,0.66,6.77-2.02,8.57
		c-2.59,1.73-5.75,0.73-7.51-2.37c0.48,0.34,0.93,0.81,1.45,0.98c1.56,0.5,2.79-0.36,2.82-1.99c0.02-1.01-0.92-2.6-1.76-2.95
		c-1.32-0.55-2.55,0.33-2.71,2.18C525.79,69.13,525.99,69.77,526.08,70.4z"/>
	<path class="st0" d="M165.25,230.32c-5.19,5.4-13.39,5.41-18.07,0.02c-4.9-5.64-4.73-14.76,0.37-20.44
		c4.96-5.52,13.12-5.33,18.15,0.42c4.85,5.55,4.58,14.05-0.65,20.15c0.41-1.39,1.12-2.77,1.17-4.18c0.16-4.19-2.24-6.8-5.49-6.01
		c-2.02,0.49-4.68,3.72-4.92,6c-0.38,3.62,2.04,6.23,5.8,5.64C162.87,231.73,164.04,230.88,165.25,230.32z"/>
	<path class="st0" d="M254.05,106.37c-3.72,1.55-7.98-0.41-9.38-4.33c-1.47-4.11,0.36-8.8,4.09-10.52c3.63-1.67,7.83,0.39,9.34,4.58
		c1.46,4.05-0.3,8.39-4.18,10.3c0.48-0.62,1.11-1.17,1.4-1.89c0.88-2.14,0.14-4.07-1.7-4.44c-1.14-0.23-3.14,0.81-3.7,1.93
		c-0.89,1.79-0.13,3.72,1.94,4.32C252.55,106.53,253.32,106.37,254.05,106.37z"/>
	<path class="st0" d="M339.25,50.02c-2.22-8.88,2.11-18.39,9.55-20.96c7.78-2.69,16.08,2.32,18.61,11.25
		c2.46,8.67-2.04,18.04-10,20.83c-7.68,2.69-15.35-2.12-18.19-11.42c1.06,1.21,1.95,2.76,3.22,3.57c3.77,2.4,7.44,1.01,8.44-3.19
		c0.62-2.6-0.95-7.39-2.92-8.88c-3.13-2.36-6.81-0.93-8.26,3.75C339.22,46.52,339.38,48.33,339.25,50.02z"/>
</g>
</svg>
