<?xml version="1.0" encoding="utf-8"?>
<!-- Generator: Adobe Illustrator 25.0.0, SVG Export Plug-In . SVG Version: 6.00 Build 0)  -->
<svg version="1.1" id="Calque_1" xmlns="http://www.w3.org/2000/svg" xmlns:xlink="http://www.w3.org/1999/xlink" x="0px" y="0px"
	 viewBox="0 0 841.89 595.28" style="enable-background:new 0 0 841.89 595.28;" xml:space="preserve">
<style type="text/css">
	.st0{fill:#FFFFFF;}
</style>
<g>
	<path class="st0" d="M295.64,315.31c-0.12-1.07-0.25-2.79-0.53-4.46c-1.69-10.24-9.48-19.19-19.45-17.94
		c-11.43,1.43-18.95,16.82-15.24,29.71c3.23,11.2,8.44,20.92,13.87,30.43c1.67,2.92,5.09,2.57,6.78-0.43
		c4.14-7.34,8.08-14.87,11.23-23.02C293.98,325.3,295.53,320.92,295.64,315.31z"/>
	<path class="st0" d="M277.08,323.93c-4.56-0.01-8.24-4.78-8.24-10.69c0.01-5.85,3.75-10.73,8.26-10.76
		c4.55-0.03,8.35,4.94,8.31,10.88C285.37,319.25,281.68,323.94,277.08,323.93z"/>
	<path class="st0" d="M347.79,435.33c-10.09,0.38-14.77,5.1-14.12,15.66c-1.9-8.63-3.79-16.69-15.54-15.26
		c9.33-1.45,15.82-4.85,14.78-16.55C333.39,429.67,337.56,435.15,347.79,435.33z"/>
	<path class="st0" d="M642.67,263.83c-10.09,0.38-14.77,5.1-14.12,15.66c-1.9-8.63-3.79-16.69-15.54-15.26
		c9.33-1.45,15.82-4.85,14.78-16.55C628.27,258.17,632.44,263.65,642.67,263.83z"/>
	<path class="st0" d="M569.42,146.5c-5.85,0.22-8.57,2.96-8.19,9.08c-1.1-5-2.2-9.68-9.01-8.85c5.41-0.84,9.17-2.81,8.57-9.6
		C561.07,143.22,563.49,146.4,569.42,146.5z"/>
	<path class="st0" d="M564.14,501.8c-10.09,0.38-14.77,5.1-14.12,15.66c-1.9-8.63-3.79-16.69-15.54-15.26
		c9.33-1.45,15.82-4.85,14.78-16.55C549.74,496.14,553.91,501.62,564.14,501.8z"/>
	<path class="st0" d="M304.81,130.27c-10.09,0.38-14.77,5.1-14.12,15.66c-1.9-8.63-3.79-16.69-15.54-15.26
		c9.33-1.45,15.82-4.85,14.78-16.55C290.41,124.61,294.58,130.09,304.81,130.27z"/>
	<path class="st0" d="M204.79,271.7c-3.92,0.15-5.74,1.98-5.48,6.08c-0.74-3.35-1.47-6.48-6.04-5.93c3.62-0.56,6.14-1.88,5.74-6.43
		C199.2,269.5,200.82,271.63,204.79,271.7z"/>
	<g>
		<g>
			<path class="st0" d="M128.91,294.67h7.08l22.63,60.39h-12.01l-14.16-41.25l-14.16,41.25h-12.01L128.91,294.67z M117.14,334.42
				h31.13v10.97h-31.13V334.42z"/>
			<path class="st0" d="M175.02,353.05c-3.23-1.76-5.68-4.32-7.37-7.68c-1.68-3.36-2.52-7.41-2.52-12.15v-38.55h11.15v38.84
				c0,3.46,0.91,6.15,2.73,8.06c1.82,1.91,4.38,2.87,7.69,2.87c3.34,0,5.92-0.96,7.75-2.87c1.83-1.91,2.75-4.6,2.75-8.06v-38.84
				h11.15v38.55c0,4.73-0.85,8.78-2.54,12.15c-1.7,3.37-4.17,5.93-7.41,7.68c-3.24,1.76-7.14,2.64-11.7,2.64
				S178.24,354.81,175.02,353.05z"/>
			<path class="st0" d="M212.42,294.67h43.38v10.97h-43.38V294.67z M228.53,299.62h11.15v55.45h-11.15V299.62z"/>
			<path class="st0" d="M356,327.94v10.97h-28.98v-10.97H356z"/>
			<path class="st0" d="M414.48,294.67h8.95l11.31,40.29l7.61-40.29h11.48l-13.63,60.39h-10.5l-10.5-42.2l-10.99,42.2h-10.5
				l-13.63-60.39h11.48l7.61,40.29L414.48,294.67z"/>
			<path class="st0" d="M477.68,294.67h7.08l22.63,60.39h-12l-14.16-41.25l-14.16,41.25h-12.01L477.68,294.67z M465.92,334.42h31.13
				v10.97h-31.13V334.42z"/>
			<path class="st0" d="M525.03,354.82c-2.7-0.58-5.24-1.43-7.61-2.55s-4.5-2.47-6.37-4.05l5.17-9.39c2.28,1.91,4.91,3.39,7.9,4.42
				c2.98,1.04,6.05,1.56,9.2,1.56c3.64,0,6.46-0.63,8.46-1.89c2.01-1.26,3.01-3.04,3.01-5.34v-0.04c0-1.61-0.45-2.88-1.34-3.82
				s-2.06-1.63-3.5-2.08c-1.44-0.44-3.28-0.84-5.54-1.2c-0.08-0.03-0.16-0.04-0.22-0.04c-0.07,0-0.14-0.01-0.22-0.04l-0.9-0.12
				c-3.96-0.64-7.24-1.43-9.85-2.39c-2.6-0.96-4.82-2.63-6.63-5.03c-1.82-2.39-2.73-5.79-2.73-10.2v-0.04
				c0-3.9,0.85-7.24,2.56-10.01c1.71-2.77,4.19-4.88,7.45-6.33c3.25-1.45,7.19-2.18,11.8-2.18c2.12,0,4.28,0.25,6.49,0.75
				c2.21,0.5,4.38,1.22,6.49,2.16c2.12,0.94,4.12,2.08,6.02,3.41l-4.72,9.64c-2.28-1.61-4.66-2.85-7.14-3.74
				c-2.48-0.89-4.86-1.33-7.14-1.33c-3.42,0-6.06,0.58-7.94,1.72c-1.87,1.15-2.81,2.76-2.81,4.84v0.04c0,1.75,0.49,3.12,1.46,4.13
				c0.98,1.01,2.18,1.75,3.62,2.22s3.46,0.97,6.06,1.5c0.11,0.03,0.22,0.05,0.33,0.06s0.22,0.04,0.33,0.06
				c0.16,0.03,0.32,0.06,0.47,0.1c0.15,0.04,0.3,0.08,0.47,0.1c3.74,0.75,6.87,1.66,9.38,2.72c2.51,1.07,4.61,2.78,6.29,5.15
				c1.68,2.37,2.52,5.6,2.52,9.7v0.08c0,3.85-0.88,7.14-2.64,9.89c-1.76,2.74-4.33,4.83-7.71,6.27c-3.38,1.44-7.44,2.16-12.19,2.16
				C530.49,355.69,527.73,355.4,525.03,354.82z"/>
			<path class="st0" d="M566.04,294.67h11.15v60.39h-11.15V294.67z M571.2,319.64h34.47v10.97H571.2V319.64z M598.43,294.67h11.15
				v60.39h-11.15V294.67z"/>
			<path class="st0" d="M633.35,355.07h-11.56v-60.39h11.56V355.07z"/>
			<path class="st0" d="M645.56,294.67h13.63l22.02,46.27l-0.98,1.08v-47.35h10.66v60.35h-13.71l-21.94-45.57l0.98-1.08v46.64
				h-10.66V294.67z"/>
			<path class="st0" d="M746,321.3v11.8c0,4.49-0.89,8.44-2.67,11.86s-4.29,6.06-7.55,7.93s-7.03,2.8-11.31,2.8
				c-4.31,0-8.12-0.88-11.42-2.64c-3.3-1.76-5.85-4.24-7.65-7.46c-1.8-3.21-2.71-6.94-2.71-11.17V316.6c0-4.49,0.89-8.43,2.67-11.84
				s4.29-6.04,7.55-7.91s7.03-2.8,11.31-2.8c3.53,0,6.78,0.74,9.77,2.22c2.98,1.48,5.47,3.58,7.47,6.29s3.34,5.86,4.05,9.43h-12.05
				c-0.41-1.27-1.08-2.37-2.01-3.3c-0.94-0.93-2.03-1.63-3.3-2.12c-1.26-0.48-2.57-0.73-3.93-0.73c-1.98,0-3.72,0.44-5.23,1.33
				c-1.51,0.89-2.67,2.15-3.5,3.78c-0.83,1.63-1.24,3.52-1.24,5.65v17.82c0,1.88,0.42,3.54,1.26,4.98c0.84,1.44,2.04,2.55,3.58,3.32
				c1.55,0.78,3.34,1.16,5.37,1.16c2.01,0,3.76-0.42,5.27-1.27c1.51-0.84,2.67-2.07,3.48-3.68c0.81-1.61,1.22-3.5,1.22-5.69v-1
				h-8.95V321.3H746z"/>
		</g>
	</g>
	<g>
		<g>
			<path class="st0" d="M110.77,418.78c-1.23-0.67-2.17-1.65-2.81-2.93c-0.65-1.28-0.97-2.83-0.97-4.64v-11.07
				c0-1.81,0.32-3.36,0.97-4.64s1.59-2.26,2.81-2.93c1.23-0.67,2.71-1.01,4.45-1.01c1.74,0,3.22,0.34,4.45,1.01
				c1.23,0.67,2.17,1.65,2.81,2.93c0.65,1.28,0.97,2.83,0.97,4.64v11.07c0,1.81-0.32,3.36-0.97,4.64c-0.65,1.28-1.59,2.26-2.81,2.93
				c-1.23,0.67-2.71,1.01-4.45,1.01C113.48,419.79,112,419.45,110.77,418.78z M118.19,416.48c0.82-0.46,1.45-1.12,1.88-1.99
				c0.43-0.87,0.64-1.92,0.64-3.15V400c0-1.23-0.21-2.28-0.64-3.15c-0.43-0.87-1.05-1.53-1.88-1.99c-0.82-0.46-1.82-0.68-2.97-0.68
				s-2.15,0.23-2.97,0.68s-1.45,1.12-1.89,1.99c-0.43,0.87-0.65,1.92-0.65,3.15v11.34c0,1.23,0.22,2.28,0.65,3.15
				c0.43,0.87,1.06,1.53,1.89,1.99c0.82,0.46,1.82,0.69,2.97,0.69S117.37,416.93,118.19,416.48z M115.33,413.03l1.59-1.94l8.93,7.08
				l-1.59,1.98L115.33,413.03z"/>
			<path class="st0" d="M159.29,418.87c-1.17-0.61-2.05-1.53-2.63-2.76c-0.59-1.22-0.88-2.76-0.88-4.61v-19.65h2.72v19.79
				c0,1.83,0.43,3.19,1.3,4.1s2.17,1.36,3.91,1.36c1.75,0,3.06-0.45,3.94-1.36s1.31-2.27,1.31-4.1v-19.79h2.72v19.65
				c0,1.85-0.3,3.39-0.89,4.61c-0.59,1.22-1.48,2.14-2.66,2.76c-1.18,0.62-2.66,0.92-4.42,0.92
				C161.94,419.79,160.46,419.48,159.29,418.87z"/>
			<path class="st0" d="M207.15,419.5h-2.74v-27.66h2.74V419.5z"/>
			<path class="st0" d="M243.59,418.74c-1.2-0.7-2.11-1.7-2.76-3.01c-0.64-1.31-0.96-2.85-0.96-4.64v-10.83
				c0-1.79,0.32-3.34,0.96-4.65c0.64-1.31,1.56-2.32,2.76-3.02c1.2-0.7,2.61-1.05,4.25-1.05c1.52,0,2.86,0.32,4,0.95
				c1.15,0.63,2.06,1.55,2.73,2.75c0.67,1.2,1.07,2.62,1.18,4.25h-2.72c-0.11-1.1-0.4-2.06-0.87-2.86
				c-0.47-0.81-1.07-1.42-1.81-1.86c-0.74-0.43-1.58-0.65-2.51-0.65c-1.08,0-2.01,0.25-2.79,0.74c-0.78,0.5-1.38,1.2-1.81,2.12
				c-0.43,0.92-0.64,2.01-0.64,3.26v10.83c0,1.26,0.21,2.34,0.64,3.26c0.43,0.92,1.03,1.62,1.81,2.11s1.71,0.73,2.79,0.73
				c0.94,0,1.78-0.21,2.52-0.64s1.34-1.04,1.8-1.85c0.47-0.8,0.76-1.77,0.87-2.88h2.72c-0.11,1.64-0.51,3.05-1.19,4.25
				s-1.59,2.12-2.74,2.75c-1.15,0.63-2.47,0.95-3.98,0.95C246.2,419.79,244.79,419.44,243.59,418.74z"/>
			<path class="st0" d="M287.44,391.84h2.72v27.66h-2.72V391.84z M289.24,409.5l11.84-17.66h3.27l-14.47,20.97L289.24,409.5z
				 M295.09,404.74l1.64-2.83l8.63,17.6h-3.23L295.09,404.74z"/>
			<path class="st0" d="M402.37,418.74c-1.2-0.7-2.11-1.7-2.76-3.01c-0.64-1.31-0.96-2.85-0.96-4.64v-10.83
				c0-1.79,0.32-3.34,0.96-4.65c0.64-1.31,1.56-2.32,2.76-3.02c1.2-0.7,2.61-1.05,4.25-1.05c1.52,0,2.86,0.32,4,0.95
				c1.15,0.63,2.06,1.55,2.73,2.75c0.67,1.2,1.07,2.62,1.18,4.25h-2.72c-0.11-1.1-0.4-2.06-0.87-2.86
				c-0.47-0.81-1.07-1.42-1.81-1.86c-0.74-0.43-1.58-0.65-2.51-0.65c-1.08,0-2.01,0.25-2.79,0.74c-0.78,0.5-1.38,1.2-1.81,2.12
				c-0.43,0.92-0.64,2.01-0.64,3.26v10.83c0,1.26,0.21,2.34,0.64,3.26c0.43,0.92,1.03,1.62,1.81,2.11s1.71,0.73,2.79,0.73
				c0.94,0,1.78-0.21,2.52-0.64s1.34-1.04,1.8-1.85c0.47-0.8,0.76-1.77,0.87-2.88h2.72c-0.11,1.64-0.51,3.05-1.19,4.25
				s-1.59,2.12-2.74,2.75c-1.15,0.63-2.47,0.95-3.98,0.95C404.98,419.79,403.57,419.44,402.37,418.74z"/>
			<path class="st0" d="M446.22,391.84h2.72v27.66h-2.72V391.84z M448.14,416.95h12.6v2.55h-12.6V416.95z"/>
			<path class="st0" d="M491.67,391.84h2.72v27.66h-2.72V391.84z M493.54,391.84h12.84v2.55h-12.84V391.84z M493.54,404.49h11.33
				v2.55h-11.33V404.49z M493.54,416.95h12.84v2.55h-12.84V416.95z"/>
			<path class="st0" d="M544.04,391.84h3.29l8.23,27.66h-3.02l-6.86-24.69l-6.85,24.69h-3.02L544.04,391.84z M539.9,410.24h11.9
				v2.55h-11.9V410.24z"/>
			<path class="st0" d="M586.11,391.84h2.64l12.31,23.8l-0.79-0.13v-23.67h2.72v27.64h-2.7l-12.45-23.9l0.96,0.29v23.61h-2.7V391.84
				z"/>
			<path class="st0" d="M638.74,419.5H636v-27.66h2.74V419.5z"/>
			<path class="st0" d="M671.75,391.84h2.64l12.31,23.8l-0.79-0.13v-23.67h2.72v27.64h-2.7l-12.45-23.9l0.96,0.29v23.61h-2.7V391.84
				z"/>
			<path class="st0" d="M737.2,404.99v6.07c0,1.9-0.31,3.5-0.92,4.8c-0.61,1.3-1.52,2.28-2.73,2.94c-1.21,0.66-2.69,0.99-4.46,0.99
				c-1.79,0-3.29-0.31-4.52-0.93c-1.23-0.62-2.15-1.54-2.77-2.77c-0.62-1.22-0.93-2.73-0.93-4.52v-11.3c0-1.9,0.31-3.5,0.92-4.79
				c0.61-1.29,1.52-2.27,2.73-2.93c1.21-0.66,2.69-0.99,4.46-0.99c1.66,0,3.06,0.3,4.18,0.91c1.13,0.61,2.01,1.52,2.65,2.73
				s1.03,2.74,1.15,4.58h-2.95c-0.11-1.24-0.38-2.28-0.8-3.12s-0.99-1.46-1.69-1.88c-0.71-0.42-1.55-0.63-2.55-0.63
				c-1.17,0-2.16,0.23-2.96,0.7c-0.81,0.47-1.41,1.15-1.81,2.06c-0.4,0.9-0.6,2.02-0.6,3.37v11.3c0,1.23,0.21,2.26,0.62,3.09
				c0.42,0.83,1.03,1.46,1.84,1.89c0.81,0.43,1.82,0.65,3.03,0.65c1.17,0,2.15-0.23,2.93-0.68s1.37-1.12,1.77-2.02
				s0.59-2.02,0.59-3.38v-3.62h-5.29v-2.53H737.2z"/>
		</g>
	</g>
	<rect x="107.02" y="367.66" class="st0" width="630.62" height="9.54"/>
	<path class="st0" d="M253.9,253.62c0.3-6.33-2.62-9.18-8.97-9.37c6.3-0.43,9.31-3.42,9.17-10.09c0.79,6.01,2.22,10.66,9.58,9.39
		C256.23,246.41,256.23,246.41,253.9,253.62z"/>
	<path class="st0" d="M252.27,251.73c0.28-5.88-2.43-8.52-8.33-8.7c5.85-0.4,8.65-3.18,8.52-9.37c0.73,5.58,2.06,9.9,8.9,8.72
		C254.44,245.04,254.44,245.04,252.27,251.73z"/>
	<path class="st0" d="M739.64,278.35c-20.54,0-41.09-0.51-61.6,0.19c-12.21,0.42-11.15-8.6-12.95-15.96
		c-19.94-81.21-66.39-140.68-140.85-176.05C382.31,19.1,212.94,104.09,177.39,259.99c-1.23,5.37-2.63,10.7-4.54,18.46
		c-11.81,0-23.75,0-35.7,0c-11.78,0-23.57,0-35.35,0c-0.07-1.06-0.14-2.13-0.21-3.19c13.48-2.78,26.87-6.17,40.45-8.14
		c12.18-1.76,18.44-7.15,22.01-20.01C198.23,124.04,302.84,45.02,427.64,47.09c114.17,1.89,215.74,80.45,248.24,193.71
		c4.98,17.35,12.13,26.22,29.86,27.48c11.29,0.8,22.39,4.53,33.57,6.94C739.43,276.27,739.53,277.31,739.64,278.35z"/>
	<path class="st0" d="M549.31,464.1c-69.58,72.3-198,66.03-256.68-5.04c10.7,3.54,22.44,5.25,31.92,10.91
		c63.57,37.96,126.65,37.92,190.42,0.61c9.86-5.77,21.6-8.21,32.47-12.19C548.07,460.3,548.69,462.2,549.31,464.1z"/>
	<path class="st0" d="M734.77,457.05c-28.8,3.69-57.75,6.46-86.31,11.56c-9.74,1.74-20.89,7.14-27.3,14.56
		c-108.63,125.48-296.56,125.52-404.29,0.08c-6.39-7.45-17.56-12.89-27.3-14.65c-27.88-5.03-56.18-7.67-84.11-13.79
		c33.48,0,66.98-0.71,100.42,0.58c6.87,0.26,15.02,6.62,19.94,12.48c72.05,85.64,180.6,114.91,283.24,75.45
		c40.56-15.59,74.72-40.86,101.92-75.18c8.15-10.28,16.54-13.97,29.21-13.62c31.49,0.87,63.01,0.29,94.53,0.29
		C734.73,455.55,734.75,456.3,734.77,457.05z"/>
	<path class="st0" d="M563.18,182.26c6.37-17.43,18.26-23.04,28.47-13.39c2.23,2.11,1.73,12.1-0.34,13.29
		c-14.63,8.35-30,15.34-46.62,23.5c2.43-3.63,4.07-6.1,6.82-10.22c-87.89,0-174.51,0-262.63,0c2.26,3.74,3.92,6.49,6.93,11.48
		c-9.18-4.65-16.54-8.07-23.6-12.06c-5.08-2.87-9.69-6.58-14.62-9.74c-4.69-3.01-9.51-5.79-14.28-8.67
		c3.45-3.63,6.69-9.96,10.4-10.27c6.18-0.5,13.02,2.12,18.84,4.98c2.11,1.04,2.11,6.55,3.44,11.32c3.87-4.65,7.89-8.3,10.48-12.8
		c17.14-29.7,42.5-45.56,76.16-45.53c43.92,0.03,87.87,0.45,131.73,2.5c21.09,0.99,38.14,12.17,49.99,30.95
		C549.77,166.18,556.64,173.78,563.18,182.26z M477.89,186.29c27.25,0,50.12,0,78.58,0c-16.41-19.61-30.03-35.9-42.36-50.64
		c-11.33,9.32-20.55,14.46-26.21,22.29C482.82,164.97,481.66,174.94,477.89,186.29z"/>
	<path class="st0" d="M586.23,201.67c21.86,7.57,25.27,15.07,22.58,42.69c-1.79,18.36-13.86,22.41-28.59,22.92
		c-13.59,0.47-27.21,0.1-40.81,0.1c-1.15-1.47-2.3-2.94-3.45-4.4c8.77-7.09,16.93-15.22,26.44-21.03
		C577.56,232.68,590.47,222.88,586.23,201.67z"/>
	<path class="st0" d="M303.51,267.87c-17.65,0-32.43,0.23-47.21-0.06c-15.28-0.31-24.25-7.53-25.25-24.12
		c-1.74-28.83,1.12-34.64,22.11-39.69C247.3,242.55,292.7,239.05,303.51,267.87z"/>
	<path class="st0" d="M204.38,98.85c2.36,13.05-5.68,26.03-17.73,28.62c-12.61,2.71-25.04-5.69-27.88-18.84
		c-2.76-12.78,5.53-25.54,18.42-28.37c12.44-2.73,23.92,5.29,27.21,19.03c-1.52-1.89-2.73-4.24-4.62-5.59
		c-5.63-3.99-11.6-2.54-13.71,3.33c-1.31,3.63,0.54,10.73,3.46,13.15c4.63,3.83,10.61,2.34,13.49-4.15
		C203.98,103.87,203.96,101.26,204.38,98.85z"/>
	<path class="st0" d="M570.75,74.31c-4.61-8.42-2.04-19.27,5.66-23.93c8.06-4.87,18.54-2.05,23.5,6.33
		c4.82,8.14,2.03,18.9-6.2,23.92c-7.94,4.84-17.68,2.05-23.08-6.62c1.48,0.94,2.85,2.27,4.46,2.75c4.79,1.41,8.57-1.02,8.68-5.55
		c0.07-2.81-2.83-7.26-5.39-8.23c-4.06-1.54-7.84,0.92-8.34,6.07C569.87,70.76,570.49,72.56,570.75,74.31z"/>
	<path class="st0" d="M522.11,54.89c-1.45-2.65-0.64-6.06,1.78-7.52c2.53-1.53,5.83-0.64,7.39,1.99c1.52,2.56,0.64,5.94-1.95,7.52
		c-2.5,1.52-5.56,0.64-7.25-2.08c0.46,0.29,0.89,0.71,1.4,0.86c1.51,0.44,2.69-0.32,2.73-1.75c0.02-0.88-0.89-2.28-1.69-2.59
		c-1.28-0.48-2.46,0.29-2.62,1.91C521.84,53.77,522.03,54.34,522.11,54.89z"/>
	<path class="st0" d="M173.76,195.21c-5.01,4.74-12.92,4.74-17.44,0.01c-4.73-4.95-4.57-12.95,0.36-17.94
		c4.78-4.84,12.67-4.68,17.52,0.37c4.69,4.87,4.42,12.33-0.63,17.68c0.39-1.22,1.08-2.43,1.13-3.67c0.15-3.68-2.16-5.97-5.3-5.28
		c-1.95,0.43-4.52,3.26-4.75,5.27c-0.37,3.17,1.97,5.47,5.6,4.95C171.47,196.45,172.6,195.7,173.76,195.21z"/>
	<path class="st0" d="M259.5,86.45c-3.6,1.36-7.7-0.36-9.06-3.8c-1.42-3.6,0.34-7.72,3.95-9.23c3.5-1.47,7.56,0.34,9.02,4.02
		c1.41,3.55-0.29,7.37-4.03,9.04c0.46-0.55,1.07-1.02,1.36-1.66c0.85-1.88,0.13-3.57-1.65-3.9c-1.1-0.2-3.03,0.71-3.57,1.7
		c-0.86,1.57-0.13,3.27,1.87,3.79C258.05,86.59,258.79,86.45,259.5,86.45z"/>
	<path class="st0" d="M341.74,37c-2.14-7.79,2.04-16.14,9.22-18.39c7.51-2.36,15.52,2.04,17.96,9.87
		c2.37,7.61-1.97,15.83-9.65,18.28c-7.41,2.36-14.82-1.86-17.56-10.02c1.03,1.06,1.89,2.42,3.11,3.13c3.64,2.11,7.19,0.88,8.15-2.8
		c0.6-2.28-0.91-6.49-2.82-7.79c-3.02-2.07-6.58-0.82-7.97,3.29C341.71,33.93,341.87,35.52,341.74,37z"/>
</g>
</svg>
